<svg width="147" height="41" viewBox="0 0 147 41" fill="none" xmlns="http://www.w3.org/2000/svg">
<path d="M145.942 18.1595L145.939 18.1564L127.727 0.962829C126.362 -0.325201 124.155 -0.320407 122.797 0.974069C121.44 2.26838 121.445 4.36186 122.809 5.65006L135.037 17.1935H3.9823C2.05728 17.1935 0.496857 18.6738 0.496857 20.5C0.496857 22.3262 2.05728 23.8065 3.9823 23.8065H135.037L122.809 35.3499C121.445 36.6381 121.44 38.7316 122.798 40.0259C124.156 41.3206 126.363 41.325 127.727 40.0372L145.939 22.8436L145.942 22.8405C147.307 21.548 147.303 19.4477 145.942 18.1595Z" fill="white"/>
</svg>
