<svg width="38" height="23" viewBox="0 0 38 23" fill="none" xmlns="http://www.w3.org/2000/svg">
<path fill-rule="evenodd" clip-rule="evenodd" d="M27.0898 0.228909C30.3845 1.01082 31.6447 2.98115 33.2248 5.69307H27.0898V0.228909ZM7.83588 5.92079C8.48094 5.92079 8.94916 6.23925 8.94916 6.9835C8.94916 7.61122 8.45253 8.12033 7.83907 8.12211H1.11328C0.498367 8.12211 0 8.63212 0 9.26073C0 9.88963 0.498367 10.3993 1.11328 10.3993H11.1328C11.7535 10.3993 12.2504 10.9088 12.2504 11.538C12.2504 12.1669 11.7521 12.6766 11.1372 12.6766H1.11328C0.498367 12.6766 0 13.1863 0 13.8152C0 14.4441 0.498367 14.9538 1.11328 14.9538H3.5625V18.3696C3.5625 18.9985 4.06087 19.5082 4.67578 19.5082H6.91365C7.31258 21.518 9.04889 23 11.0957 23C13.1425 23 14.8788 21.518 15.2778 19.5082H26.5816C26.9805 21.518 28.7169 23 30.7637 23C32.8105 23 34.5468 21.518 34.9457 19.5082H36.8867C37.5016 19.5082 38 18.9985 38 18.3696V11.538C38 8.19713 34.5546 7.97534 34.5514 7.9703H25.9766C25.3616 7.9703 24.8633 7.46059 24.8633 6.83168V0H4.67578C4.06087 0 3.5625 0.509708 3.5625 1.13861V3.64356H2.22656C1.61165 3.64356 1.11328 4.15327 1.11328 4.78218C1.11328 5.41108 1.61165 5.92079 2.22656 5.92079H7.83588ZM32.2069 17.1593C33.0039 17.9744 33.0039 19.2965 32.2069 20.1117C30.9249 21.4228 28.7227 20.49 28.7227 18.6353C28.7227 16.7809 30.9249 15.8481 32.2069 17.1593ZM12.5389 17.1593C13.3359 17.9744 13.3359 19.2965 12.5389 20.1117C11.2569 21.4228 9.05469 20.49 9.05469 18.6353C9.05469 16.7809 11.2569 15.8481 12.5389 17.1593Z" fill="#1A1919"/>
</svg>
