<svg width="64" height="56" viewBox="0 0 64 56" fill="none" xmlns="http://www.w3.org/2000/svg">
<g filter="url(#filter0_d_105_46)">
<path d="M15.264 5.5971C13.4862 5.78523 11.6275 6.52975 10.1729 7.63854C9.36054 8.25898 8.40782 9.28371 7.82513 10.1643C6.53641 12.1057 5.83463 14.3153 5.64749 17.0212C5.32424 21.7085 7.24244 25.0269 12.1294 28.2372C13.0311 28.8296 13.8647 29.3299 15.6255 30.3306C18.0499 31.7076 18.9856 32.292 20.2275 33.2007C23.0304 35.2461 25.7397 38.0561 26.7647 39.9775C26.8881 40.2096 27.0114 40.4618 27.0412 40.5379L27.0965 40.678L27.173 40.4778C27.7642 38.8887 30.6139 35.8065 33.808 33.2927C35.2073 32.192 36.4323 31.3874 39.082 29.8303C42.2422 27.973 43.5224 27.0963 44.8834 25.8475C46.942 23.9621 48.018 22.0568 48.4263 19.575C48.5284 18.9546 48.5284 16.9291 48.4263 16.1206C48.1754 14.1592 47.7203 12.6621 46.9079 11.157C46.3338 10.0963 45.6277 9.19164 44.7345 8.37506C43.1651 6.94205 41.366 6.10545 39.1671 5.78523C38.6014 5.70517 36.9214 5.71718 36.3387 5.80524C32.9914 6.32961 30.2353 8.1389 28.2108 11.137C27.9386 11.5373 27.4495 12.3899 27.2368 12.8422L27.0709 13.1865L26.6414 12.3819C26.4074 11.9376 26.0587 11.3412 25.8673 11.053C23.7534 7.87871 20.7422 5.94934 17.3268 5.59309C16.8802 5.54506 15.7191 5.54906 15.264 5.5971Z" fill="white"/>
</g>
<defs>
<filter id="filter0_d_105_46" x="0.612793" y="0.55896" width="62.8901" height="55.119" filterUnits="userSpaceOnUse" color-interpolation-filters="sRGB">
<feFlood flood-opacity="0" result="BackgroundImageFix"/>
<feColorMatrix in="SourceAlpha" type="matrix" values="0 0 0 0 0 0 0 0 0 0 0 0 0 0 0 0 0 0 127 0" result="hardAlpha"/>
<feOffset dx="5" dy="5"/>
<feGaussianBlur stdDeviation="5"/>
<feComposite in2="hardAlpha" operator="out"/>
<feColorMatrix type="matrix" values="0 0 0 0 1 0 0 0 0 1 0 0 0 0 1 0 0 0 0.25 0"/>
<feBlend mode="normal" in2="BackgroundImageFix" result="effect1_dropShadow_105_46"/>
<feBlend mode="normal" in="SourceGraphic" in2="effect1_dropShadow_105_46" result="shape"/>
</filter>
</defs>
</svg>
