<svg width="24" height="34" viewBox="0 0 24 34" fill="none" xmlns="http://www.w3.org/2000/svg">
<path d="M12 0C5.38316 0 0 5.38316 0 11.9999C0 20.2116 10.7388 32.2667 11.196 32.7759C11.6255 33.2542 12.3753 33.2533 12.804 32.7759C13.2612 32.2667 24 20.2116 24 11.9999C23.9999 5.38316 18.6168 0 12 0ZM12 18.0374C8.67091 18.0374 5.96256 15.329 5.96256 11.9999C5.96256 8.67084 8.67097 5.9625 12 5.9625C15.329 5.9625 18.0374 8.67091 18.0374 12C18.0374 15.3291 15.329 18.0374 12 18.0374Z" fill="#1A1919"/>
</svg>
