<svg width="45" height="43" viewBox="0 0 45 43" fill="none" xmlns="http://www.w3.org/2000/svg">
<path d="M33.9114 28.4455C32.4541 27.0586 30.6349 27.0586 29.1869 28.4455C28.0823 29.5013 26.9778 30.5571 25.8918 31.6308C25.5948 31.9261 25.3442 31.9887 24.9822 31.7919C24.2675 31.4161 23.5063 31.1119 22.8195 30.7003C19.6172 28.7586 16.9347 26.2622 14.5586 23.4526C13.3797 22.0568 12.3309 20.5625 11.5976 18.8803C11.4491 18.5403 11.4769 18.3166 11.7647 18.0393C12.8692 17.0103 13.9459 15.9544 15.0319 14.8986C16.5449 13.4312 16.5449 11.7132 15.0226 10.2368C14.1594 9.39576 13.2962 8.57257 12.433 7.73148C11.5419 6.8725 10.6601 6.00457 9.75979 5.15454C8.30253 3.78554 6.48327 3.78554 5.03529 5.16349C3.92146 6.21932 2.85403 7.30199 1.72164 8.33993C0.672779 9.29733 0.143709 10.4695 0.0323255 11.8385C-0.144031 14.0665 0.422167 16.1692 1.22041 18.2182C2.85403 22.4594 5.34159 26.2264 8.35822 29.6802C12.433 34.3509 17.2967 38.0464 22.9865 40.7128C25.5484 41.9118 28.203 42.8334 31.0897 42.9855C33.076 43.0929 34.8024 42.6097 36.1855 41.1154C37.1322 40.0954 38.1996 39.1648 39.2021 38.1895C40.6872 36.74 40.6965 34.9862 39.2206 33.5546C37.4571 31.8456 35.6842 30.1455 33.9114 28.4455Z" fill="#E30613"/>
<path d="M33.9114 28.4455C32.4541 27.0586 30.6349 27.0586 29.1869 28.4455C28.0823 29.5013 26.9778 30.5571 25.8918 31.6308C25.5948 31.9261 25.3442 31.9887 24.9822 31.7919C24.2675 31.4161 23.5063 31.1119 22.8195 30.7003C19.6172 28.7586 16.9347 26.2622 14.5586 23.4526C13.3797 22.0568 12.3309 20.5625 11.5976 18.8803C11.4491 18.5403 11.4769 18.3166 11.7647 18.0393C12.8692 17.0103 13.9459 15.9544 15.0319 14.8986C16.5449 13.4312 16.5449 11.7132 15.0226 10.2368C14.1594 9.39576 13.2962 8.57257 12.433 7.73148C11.5419 6.8725 10.6601 6.00457 9.75979 5.15454C8.30253 3.78554 6.48327 3.78554 5.03529 5.16349C3.92146 6.21932 2.85403 7.30199 1.72164 8.33993C0.672779 9.29733 0.143709 10.4695 0.0323255 11.8385C-0.144031 14.0665 0.422167 16.1692 1.22041 18.2182C2.85403 22.4594 5.34159 26.2264 8.35822 29.6802C12.433 34.3509 17.2967 38.0464 22.9865 40.7128C25.5484 41.9118 28.203 42.8334 31.0897 42.9855C33.076 43.0929 34.8024 42.6097 36.1855 41.1154C37.1322 40.0954 38.1996 39.1648 39.2021 38.1895C40.6872 36.74 40.6965 34.9862 39.2206 33.5546C37.4571 31.8456 35.6842 30.1455 33.9114 28.4455Z" fill="#E30613"/>
<path d="M32.1385 21.3138L35.5635 20.75C35.0252 17.7166 33.5401 14.9695 31.2846 12.7861C28.8991 10.4864 25.8825 9.03677 22.5596 8.58936L22.0769 11.9092C24.648 12.2581 26.987 13.3767 28.8341 15.1574C30.5792 16.8396 31.7208 18.9693 32.1385 21.3138Z" fill="#E30613"/>
<path d="M32.1385 21.3138L35.5635 20.75C35.0252 17.7166 33.5401 14.9695 31.2846 12.7861C28.8991 10.4864 25.8825 9.03677 22.5596 8.58936L22.0769 11.9092C24.648 12.2581 26.987 13.3767 28.8341 15.1574C30.5792 16.8396 31.7208 18.9693 32.1385 21.3138Z" fill="#E30613"/>
<path d="M37.4942 6.9613C33.5401 3.14958 28.5371 0.742658 23.0144 0L22.5317 3.31959C27.3027 3.96382 31.628 6.04863 35.0438 9.33243C38.2832 12.4552 40.4087 16.4011 41.1791 20.7407L44.6042 20.177C43.7038 15.1484 41.2441 10.5851 37.4942 6.9613Z" fill="#E30613"/>
<path d="M37.4942 6.9613C33.5401 3.14958 28.5371 0.742658 23.0144 0L22.5317 3.31959C27.3027 3.96382 31.628 6.04863 35.0438 9.33243C38.2832 12.4552 40.4087 16.4011 41.1791 20.7407L44.6042 20.177C43.7038 15.1484 41.2441 10.5851 37.4942 6.9613Z" fill="#E30613"/>
</svg>
