<svg width="64" height="64" viewBox="0 0 64 64" fill="none" xmlns="http://www.w3.org/2000/svg">
<path fill-rule="evenodd" clip-rule="evenodd" d="M32.7529 0.00218827C38.0368 0.148019 42.9985 1.58109 47.3372 3.99796L45.7468 6.66581C41.8744 4.52561 37.4559 3.25255 32.7529 3.10868V0.00218827ZM48.8247 4.87987C53.1057 7.57895 56.6995 11.2687 59.2833 15.6279L56.6167 17.2181C54.2968 13.301 51.074 9.98154 47.2346 7.54714L48.8247 4.87987ZM60.125 17.1394C62.3824 21.4685 63.6744 26.3806 63.716 31.5911H60.6116C60.5706 26.9616 59.4373 22.5929 57.4547 18.7318L60.125 17.1394ZM63.6843 33.3203C63.4507 38.4625 61.9981 43.2866 59.6088 47.5113L56.9411 45.9206C59.054 42.1623 60.3481 37.8819 60.5778 33.3203H63.6843ZM58.7183 48.9936C56.0815 53.1168 52.5209 56.5923 48.3288 59.1288L46.7391 56.462C50.4893 54.1898 53.6782 51.084 56.05 47.4025L58.7183 48.9936ZM46.8245 59.9825C42.609 62.2298 37.8296 63.5585 32.7529 63.6985V60.592C37.2491 60.4546 41.4848 59.2843 45.2326 57.312L46.8245 59.9825ZM31.0236 63.7008C25.9206 63.5696 21.1169 62.237 16.8824 59.9778L18.4743 57.3071C22.2411 59.2915 26.5013 60.4655 31.0236 60.5944V63.7008ZM15.3784 59.1236C11.2024 56.5949 7.65331 53.1345 5.02074 49.0302L7.68985 47.4385C10.0572 51.1014 13.2342 54.1924 16.9681 56.4567L15.3784 59.1236ZM4.12823 47.549C1.72646 43.3153 0.26607 38.4779 0.0317026 33.3203H3.13808C3.36853 37.8971 4.6704 42.1909 6.79585 45.9583L4.12823 47.549ZM0 31.5911C0.0417319 26.3633 1.34245 21.436 3.61373 17.0964L6.284 18.6887C4.28755 22.5605 3.14546 26.9443 3.10442 31.5911H0ZM4.45748 15.5862C7.05892 11.2123 10.6783 7.51532 14.9881 4.81934L16.5782 7.48673C12.71 9.91802 9.4615 13.2446 7.12405 17.1763L4.45748 15.5862ZM16.4785 3.94228C20.8099 1.5495 25.7576 0.135341 31.0236 0V3.10637C26.3385 3.23987 21.9338 4.49379 18.0688 6.61013L16.4785 3.94228Z" fill="#E30613"/>
<path fill-rule="evenodd" clip-rule="evenodd" d="M17.9299 37.3116C17.9299 37.4015 17.9122 37.4815 17.8761 37.5512C17.8407 37.6205 17.7899 37.6794 17.7235 37.727C17.6575 37.7751 17.5779 37.8115 17.484 37.8366C17.3908 37.8616 17.2868 37.8739 17.1721 37.8739H16.6699V35.9941H17.2188C17.6464 35.9941 17.86 36.1463 17.86 36.4513C17.86 36.5529 17.8351 36.6404 17.7858 36.7135C17.7366 36.7862 17.656 36.8402 17.5444 36.876C17.5967 36.8854 17.6459 36.9016 17.6926 36.9247C17.7387 36.9477 17.7799 36.9777 17.8154 37.014C17.8503 37.0503 17.8788 37.0936 17.8991 37.1431C17.9198 37.1933 17.9299 37.2492 17.9299 37.3116ZM17.5952 36.4857C17.5952 36.4474 17.5891 36.4111 17.5774 36.3772C17.5658 36.3427 17.5449 36.3138 17.5155 36.2892C17.4861 36.2647 17.446 36.2451 17.3963 36.2308C17.346 36.2166 17.2826 36.2092 17.2061 36.2092H16.9347V36.7984H17.197C17.2573 36.7984 17.3116 36.7921 17.3598 36.7798C17.4085 36.7671 17.4506 36.748 17.4851 36.7219C17.5201 36.6963 17.5474 36.6639 17.5662 36.6246C17.5855 36.5859 17.5952 36.5398 17.5952 36.4857ZM17.6651 37.3204C17.6651 37.2724 17.6544 37.2291 17.6337 37.1909C17.6129 37.152 17.583 37.1196 17.5428 37.0936C17.5033 37.0671 17.4552 37.0464 17.3984 37.0322C17.341 37.0179 17.2771 37.0106 17.2055 37.0106H16.9347V37.6588H17.2142C17.3663 37.6588 17.479 37.6312 17.5536 37.5768C17.6281 37.5217 17.6651 37.4363 17.6651 37.3204ZM19.5882 37.8031C19.4324 37.8661 19.2696 37.8974 19.0991 37.8974C18.8248 37.8974 18.6138 37.8179 18.4666 37.6593C18.3195 37.5006 18.2459 37.2655 18.2459 36.9547C18.2459 36.8043 18.2662 36.6678 18.3068 36.5461C18.3474 36.4242 18.4057 36.3212 18.4809 36.2362C18.5559 36.1513 18.6472 36.0854 18.7542 36.0398C18.8613 35.9937 18.981 35.9706 19.1139 35.9706C19.2042 35.9706 19.2879 35.9779 19.3654 35.9932C19.4426 36.0078 19.5167 36.031 19.5882 36.0619V36.3123C19.5176 36.275 19.4446 36.2466 19.3696 36.2269C19.294 36.2073 19.2118 36.1975 19.1225 36.1975C19.0312 36.1975 18.9485 36.2141 18.8749 36.2471C18.8009 36.2799 18.738 36.3281 18.6868 36.3909C18.635 36.4538 18.5955 36.5303 18.5676 36.6213C18.5397 36.7115 18.526 36.8152 18.526 36.931C18.526 37.1746 18.5773 37.3583 18.6792 37.4821C18.7811 37.6058 18.9313 37.6677 19.1286 37.6677C19.2118 37.6677 19.2914 37.6583 19.368 37.6397C19.4446 37.621 19.5176 37.5949 19.5882 37.5615V37.8031ZM21.1855 37.8739H20.0808V35.9941H21.1855V36.2092H20.3454V36.7926H21.153V37.0077H20.3454V37.6558H21.1855V37.8739Z" fill="#E30613"/>
<path fill-rule="evenodd" clip-rule="evenodd" d="M23.371 36.2151H22.9419C22.9348 36.4144 22.9246 36.5956 22.9105 36.7586C22.8957 36.9212 22.8775 37.0635 22.8541 37.1859C22.8313 37.3081 22.8034 37.4093 22.7704 37.4888C22.738 37.5684 22.6994 37.6253 22.6548 37.6587H23.371V36.2151ZM23.8489 37.6587L23.8296 38.2803H23.5932V37.8739H22.4914V38.2803H22.2551L22.2358 37.6587H22.2581C22.2906 37.6587 22.3231 37.6494 22.3545 37.6307C22.3865 37.6121 22.4168 37.5787 22.4468 37.5316C22.4762 37.484 22.5047 37.4201 22.5305 37.3395C22.5569 37.2585 22.5808 37.1569 22.6026 37.0336C22.6243 36.9103 22.6426 36.7636 22.6583 36.5926C22.674 36.4218 22.6867 36.2225 22.6954 35.9941H23.6358V37.6587H23.8489ZM25.3306 37.8739H25.0658V36.2151H24.6366C24.6275 36.4596 24.6139 36.6727 24.5945 36.854C24.5748 37.0351 24.5505 37.1893 24.5205 37.3165C24.4911 37.4436 24.4575 37.5433 24.421 37.6166C24.3846 37.6892 24.347 37.7442 24.3089 37.7805C24.2709 37.8168 24.2318 37.8424 24.1923 37.8576C24.1527 37.8724 24.108 37.8797 24.0584 37.8797C24.0179 37.8797 23.9752 37.8748 23.9311 37.865L23.9427 37.647C23.997 37.6538 24.0452 37.6396 24.0862 37.6051C24.1274 37.5709 24.1633 37.5193 24.1938 37.4505C24.2248 37.3817 24.2506 37.2978 24.2714 37.1981C24.2922 37.0985 24.31 36.9865 24.3247 36.8623C24.3394 36.738 24.3521 36.603 24.3627 36.4567C24.3728 36.3103 24.382 36.1562 24.3901 35.9941H25.3306V37.8739V37.8739ZM25.9195 37.3141C25.9403 37.2615 25.9616 37.2198 25.983 37.1893C26.0042 37.1583 26.0255 37.1324 26.0473 37.1117C26.0692 37.0905 26.092 37.0735 26.1148 37.0607C26.1381 37.0474 26.1604 37.0376 26.1812 37.0312C26.1234 37.0204 26.0717 37.0007 26.0261 36.9722C25.9804 36.9433 25.9424 36.9079 25.9118 36.8657C25.8815 36.8234 25.8586 36.7758 25.8435 36.7223C25.8277 36.6693 25.8201 36.6143 25.8201 36.5578C25.8201 36.4753 25.8327 36.3996 25.8581 36.3314C25.8835 36.2627 25.923 36.2038 25.9768 36.1537C26.0311 36.1041 26.1005 36.0649 26.1863 36.0363C26.2725 36.0084 26.3776 35.9941 26.5023 35.9941H26.9858V37.8739H26.718V37.0961H26.5181C26.4795 37.0961 26.444 37.0994 26.412 37.1059C26.3796 37.1127 26.3506 37.125 26.3243 37.1426C26.2984 37.1603 26.2746 37.1844 26.2533 37.2148C26.232 37.2458 26.2127 37.2845 26.196 37.3312L26.0001 37.8739H25.7044L25.9195 37.3141ZM26.097 36.5417C26.097 36.6 26.1056 36.6506 26.1223 36.6928C26.1392 36.7345 26.1641 36.771 26.1969 36.8004C26.2294 36.8303 26.2705 36.8525 26.3197 36.8677C26.3689 36.8824 26.4257 36.8898 26.4902 36.8898H26.718V36.2092H26.4795C26.3527 36.2092 26.2573 36.2381 26.1929 36.2955C26.129 36.3531 26.097 36.435 26.097 36.5417Z" fill="#E30613"/>
<path fill-rule="evenodd" clip-rule="evenodd" d="M29.577 36.5691C29.577 36.6462 29.5622 36.7219 29.5324 36.7975C29.5029 36.8725 29.4568 36.9398 29.3944 36.9992C29.332 37.0587 29.2518 37.1068 29.155 37.1437C29.0581 37.1804 28.9419 37.1991 28.8075 37.1991H28.5666V37.8739H28.3018V35.9941H28.8485C28.9449 35.9941 29.0368 36.0043 29.1251 36.0251C29.2133 36.0456 29.2909 36.079 29.3579 36.1247C29.4248 36.1709 29.4781 36.2303 29.5176 36.3035C29.5572 36.3761 29.577 36.465 29.577 36.5691ZM29.3031 36.5809C29.3031 36.4596 29.2621 36.3668 29.1803 36.3025C29.0987 36.2381 28.984 36.2062 28.8374 36.2062H28.5666V36.9811H28.8136C28.9703 36.9811 29.0911 36.9481 29.1757 36.8819C29.2604 36.8156 29.3031 36.7149 29.3031 36.5809ZM29.9747 37.647C30.0067 37.6548 30.0366 37.6607 30.064 37.6646C30.0919 37.6685 30.1187 37.6705 30.1441 37.6705C30.1842 37.6705 30.2207 37.6646 30.2552 37.6524C30.2892 37.6405 30.3217 37.6199 30.3531 37.591C30.3841 37.562 30.4145 37.5237 30.4429 37.4756C30.4718 37.4275 30.5002 37.368 30.5291 37.2969L29.8245 35.9941H30.1294L30.5129 36.7189L30.6538 36.9933H30.6555L30.7584 36.7321L31.0577 35.9941H31.3371L30.7533 37.3906C30.7239 37.4614 30.6919 37.5277 30.6574 37.59C30.6234 37.6518 30.5844 37.7059 30.5408 37.752C30.4976 37.7982 30.4469 37.8341 30.3901 37.8605C30.3332 37.8871 30.2674 37.9003 30.1933 37.9003C30.1588 37.9003 30.1223 37.8978 30.0842 37.893C30.0462 37.888 30.0056 37.8787 29.963 37.865L29.9747 37.647ZM32.8539 37.8739H32.5891V36.2151H32.16C32.1508 36.4596 32.1372 36.6727 32.1178 36.854C32.0981 37.0351 32.0738 37.1893 32.0438 37.3165C32.0144 37.4436 31.9809 37.5433 31.9444 37.6166C31.9079 37.6892 31.8703 37.7442 31.8323 37.7805C31.7942 37.8168 31.7551 37.8424 31.7156 37.8576C31.676 37.8724 31.6314 37.8797 31.5816 37.8797C31.5412 37.8797 31.4985 37.8748 31.4544 37.865L31.466 37.647C31.5203 37.6538 31.5685 37.6396 31.6095 37.6051C31.6507 37.5709 31.6867 37.5193 31.7171 37.4505C31.7481 37.3817 31.7739 37.2978 31.7948 37.1981C31.8155 37.0985 31.8333 36.9865 31.848 36.8623C31.8627 36.738 31.8754 36.603 31.8861 36.4567C31.8961 36.3103 31.9053 36.1562 31.9134 35.9941H32.8539V37.8739V37.8739ZM34.4908 37.8739H33.386V35.9941H34.4908V36.2092H33.6508V36.7925H34.4584V37.0076H33.6508V37.6557H34.4908V37.8739ZM36.2555 37.3115C36.2555 37.4014 36.2379 37.4814 36.2018 37.5512C36.1663 37.6205 36.1155 37.6794 36.0491 37.727C35.9831 37.7751 35.9035 37.8115 35.8097 37.8365C35.7163 37.8615 35.6123 37.8739 35.4977 37.8739H34.9955V35.9941H35.5443C35.972 35.9941 36.1855 36.1463 36.1855 36.4513C36.1855 36.5528 36.1607 36.6403 36.1115 36.7134C36.0623 36.7862 35.9816 36.8401 35.87 36.876C35.9222 36.8853 35.9714 36.9016 36.0181 36.9246C36.0644 36.9477 36.1054 36.9777 36.1409 37.014C36.1758 37.0503 36.2043 37.0935 36.2246 37.1431C36.2453 37.1932 36.2555 37.2491 36.2555 37.3115ZM35.9207 36.4856C35.9207 36.4474 35.9147 36.4111 35.903 36.3772C35.8913 36.3427 35.8706 36.3138 35.8412 36.2892C35.8117 36.2646 35.7717 36.245 35.7219 36.2308C35.6717 36.2166 35.6083 36.2092 35.5316 36.2092H35.2603V36.7984H35.5225C35.5829 36.7984 35.6372 36.7921 35.6854 36.7797C35.7341 36.767 35.7762 36.7479 35.8106 36.7219C35.8457 36.6963 35.873 36.6639 35.8918 36.6246C35.911 36.5858 35.9207 36.5397 35.9207 36.4856ZM35.9908 37.3204C35.9908 37.2723 35.9801 37.2291 35.9593 37.1908C35.9385 37.152 35.9086 37.1196 35.8685 37.0935C35.829 37.067 35.7808 37.0464 35.7239 37.0322C35.6666 37.0179 35.6027 37.0105 35.5312 37.0105H35.2603V37.6587H35.5398C35.692 37.6587 35.8046 37.6312 35.8791 37.5768C35.9537 37.5217 35.9908 37.4363 35.9908 37.3204ZM36.812 36.7365H36.9667C37.0768 36.7365 37.1706 36.7512 37.2483 36.7803C37.3259 36.8097 37.3893 36.849 37.4385 36.8981C37.4876 36.9477 37.5231 37.0057 37.5455 37.0714C37.5679 37.1378 37.5789 37.2074 37.5789 37.2817C37.5789 37.3813 37.5652 37.4658 37.5379 37.535C37.511 37.6047 37.4709 37.6646 37.4187 37.7157C37.3659 37.7663 37.301 37.8055 37.2239 37.833C37.1463 37.86 37.0575 37.8739 36.9576 37.8739H36.5563V35.9941H36.812V36.7365V36.7365ZM37.3203 37.3002C37.3203 37.2443 37.3142 37.1952 37.3016 37.152C37.2893 37.1087 37.269 37.072 37.2406 37.0415C37.2127 37.0116 37.1757 36.9885 37.1306 36.9722C37.0859 36.9566 37.0311 36.9487 36.9667 36.9487H36.812V37.6557H36.9607C37.0864 37.6557 37.1777 37.6249 37.235 37.5629C37.2919 37.5012 37.3203 37.4132 37.3203 37.3002ZM37.7311 37.8739V35.9941H37.9868V37.8739H37.7311ZM39.7454 37.8739H39.4112L38.9395 37.15L38.4651 37.8739H38.1354L38.7817 36.9069L38.1871 35.9941H38.5007L38.9445 36.6639L39.392 35.9941H39.6968L39.1023 36.902L39.7454 37.8739Z" fill="#E30613"/>
<path fill-rule="evenodd" clip-rule="evenodd" d="M42.1209 36.5691C42.1209 36.6462 42.1063 36.7219 42.0763 36.7975C42.0469 36.8725 42.0008 36.9398 41.9383 36.9992C41.876 37.0587 41.7959 37.1068 41.6989 37.1437C41.6021 37.1804 41.4859 37.1991 41.3514 37.1991H41.1105V37.8739H40.8457V35.9941H41.3926C41.489 35.9941 41.5807 36.0043 41.669 36.0251C41.7572 36.0456 41.8348 36.079 41.9018 36.1247C41.9688 36.1709 42.022 36.2303 42.0616 36.3035C42.1012 36.3761 42.1209 36.465 42.1209 36.5691ZM41.847 36.5809C41.847 36.4596 41.806 36.3668 41.7243 36.3025C41.6426 36.2381 41.5279 36.2062 41.3814 36.2062H41.1105V36.9811H41.3576C41.5143 36.9811 41.635 36.9481 41.7198 36.8819C41.8045 36.8156 41.847 36.7149 41.847 36.5809ZM43.6879 37.8739H42.5831V35.9941H43.6879V36.2092H42.8479V36.7925H43.6555V37.0076H42.8479V37.6557H43.6879V37.8739ZM45.3613 37.8739H44.2565V35.9941H45.3613V36.2092H44.5213V36.7925H45.3289V37.0076H44.5213V37.6557H45.3613V37.8739ZM47.188 37.8739H46.8552L46.1278 36.9521V37.8739H45.863V35.9941H46.1278V36.8686L46.84 35.9941H47.1534L46.3865 36.8877L47.188 37.8739Z" fill="#E30613"/>
<path d="M51.2246 27.4988H50.1582V34.0124H51.2246V27.4988Z" fill="#E30613"/>
<path d="M37.1162 28.9851H36.0498V34.0142H37.1162V28.9851Z" fill="#E30613"/>
<path d="M30.0551 28.986H28.9888V34.0152H30.0551V28.986Z" fill="#E30613"/>
<path d="M32.0937 27.6217H31.0273V34.0128H32.0937V27.6217Z" fill="#E30613"/>
<path d="M41.2954 28.9846H40.229V34.0137H41.2954V28.9846Z" fill="#E30613"/>
<path d="M25.0942 28.9855H24.0278V34.0147H25.0942V28.9855Z" fill="#E30613"/>
<path d="M22.998 27.6246H21.9316V34.0157H22.998V27.6246Z" fill="#E30613"/>
<path d="M36.55 28.3389C36.911 28.3389 37.2035 28.0463 37.2035 27.6854C37.2035 27.3245 36.911 27.0319 36.55 27.0319C36.1891 27.0319 35.8965 27.3245 35.8965 27.6854C35.8965 28.0463 36.1891 28.3389 36.55 28.3389Z" fill="#E30613"/>
<path d="M38.7981 34.0167C39.159 34.0167 39.4516 33.7241 39.4516 33.3632C39.4516 33.0023 39.159 32.7097 38.7981 32.7097C38.4371 32.7097 38.1445 33.0023 38.1445 33.3632C38.1445 33.7241 38.4371 34.0167 38.7981 34.0167Z" fill="#E30613"/>
<path d="M29.5881 28.3822C29.949 28.3822 30.2416 28.0896 30.2416 27.7286C30.2416 27.3677 29.949 27.0751 29.5881 27.0751C29.2272 27.0751 28.9346 27.3677 28.9346 27.7286C28.9346 28.0896 29.2272 28.3822 29.5881 28.3822Z" fill="#E30613"/>
<path fill-rule="evenodd" clip-rule="evenodd" d="M33.8135 34.0082L35.0624 34.015L33.3437 31.4182L35.0294 28.9196L33.7804 28.9264L32.6367 30.624L32.6369 32.3702L33.8135 34.0082Z" fill="#E30613"/>
<path fill-rule="evenodd" clip-rule="evenodd" d="M25.7354 28.9306V29.7807C26.1537 29.7807 26.9724 29.6633 26.975 30.303L26.9889 33.9454H28.0409V30.1013C28.0409 29.4426 27.5566 28.9261 26.9025 28.9162L25.7354 28.9306Z" fill="#E30613"/>
<path fill-rule="evenodd" clip-rule="evenodd" d="M41.8199 29.0104L41.8346 29.8578C41.9026 29.8578 41.7507 29.8602 41.8346 29.8578C42.267 29.8452 42.8415 29.8499 42.8436 30.3856L42.8575 34.0278H43.9095V30.1839C43.9095 29.5252 43.4252 29.0087 42.771 28.9987L41.8199 29.0104Z" fill="#E30613"/>
<path fill-rule="evenodd" clip-rule="evenodd" d="M44.3922 29.0104L44.407 29.8578C44.407 29.8578 44.3229 29.8602 44.407 29.8578C44.8393 29.8452 45.4139 29.8499 45.4159 30.3856L45.4299 34.0278H46.4818V30.1839C46.4818 29.5252 45.9975 29.0087 45.3434 28.9987L44.3922 29.0104Z" fill="#E30613"/>
<path fill-rule="evenodd" clip-rule="evenodd" d="M19.9896 30.3495L20.0035 33.9918H21.0555V30.1477C21.0555 29.4891 20.5712 28.9725 19.9171 28.9626L17.7627 28.9737V29.818V29.8308C18.2387 29.8308 18.7181 29.818 19.1962 29.818C19.633 29.8653 19.9882 30.0026 19.9896 30.3495Z" fill="#E30613"/>
<path d="M16.3267 27.4757H14.7231V28.4268H16.3267V27.4757Z" fill="#E30613"/>
<path d="M14.1314 33.038H12.5278V33.9891H14.1314V33.038Z" fill="#E30613"/>
<path fill-rule="evenodd" clip-rule="evenodd" d="M48.137 29.0534H49.5637V29.8748H48.6702C48.4527 29.8784 48.3306 29.9817 48.3244 30.2063L48.3319 32.6229C48.3312 32.8832 48.3433 33.09 48.6774 33.0954H49.5708V33.9168H48.1443C47.3229 33.8874 47.3358 33.1524 47.3429 32.5444L47.3301 29.9612C47.3734 29.3859 47.6326 29.0715 48.137 29.0534Z" fill="#E30613"/>
<path fill-rule="evenodd" clip-rule="evenodd" d="M14.1129 27.5037H13.4211C12.9721 27.5173 12.4917 27.8169 12.4917 28.3319V30.3206C12.4917 30.7398 12.8533 31.0222 13.2185 31.1391C13.4504 31.2131 13.8608 31.1783 14.1129 31.1783V30.1984C13.8788 30.1994 13.5425 30.1415 13.5402 29.8452L13.5321 28.8184C13.5293 28.4702 13.8131 28.3743 14.1129 28.3683V27.5037Z" fill="#E30613"/>
<path fill-rule="evenodd" clip-rule="evenodd" d="M14.6929 34.0009H15.3846C15.8337 33.9873 16.3141 33.6876 16.3141 33.1726V31.184C16.3141 30.7649 15.9524 30.4824 15.5871 30.3655C15.3554 30.2914 14.9449 30.3263 14.6929 30.3263V31.3062C14.927 31.3053 15.2632 31.3632 15.2656 31.6595L15.2737 32.6863C15.2764 33.0343 14.9927 33.1303 14.6929 33.1363V34.0009Z" fill="#E30613"/>
<path fill-rule="evenodd" clip-rule="evenodd" d="M19.4506 30.846H18.3134C17.8549 30.846 17.2314 31.2233 17.2314 31.7256V32.9424V33.0647V33.0801H17.2318C17.2434 33.5378 17.7712 33.8884 18.2095 33.9381L18.2125 33.9442H18.3134H19.4506V33.1841V33.1373L18.7422 33.1371C18.0483 33.0937 18.1208 31.6533 18.7459 31.6532L19.4506 31.653V30.846Z" fill="#E30613"/>
</svg>
