<svg width="25" height="27" viewBox="0 0 25 27" fill="none" xmlns="http://www.w3.org/2000/svg">
<path d="M6.875 22.5H21.25L25 26.25V13.125C25 11.75 23.875 10.625 22.5 10.625H6.875C5.5 10.625 4.375 11.75 4.375 13.125V20C4.375 21.375 5.5 22.5 6.875 22.5Z" fill="white"/>
<path d="M15.5 18H13.25L12.8125 19.3125H11.4375L13.75 13.0625H14.9375L17.25 19.3125H15.875L15.5 18ZM13.5625 17H15.125L14.375 14.625L13.5625 17Z" fill="#2B2929"/>
<path d="M18.125 13.125H3.75L0 16.875V2.5C0 1.125 1.125 0 2.5 0H18.125C19.5 0 20.625 1.125 20.625 2.5V10.625C20.625 12 19.5 13.125 18.125 13.125Z" fill="#2B2929"/>
<path d="M13.375 6.375C13.375 7 13.25 7.5 13.0625 7.9375C12.875 8.375 12.625 8.75 12.25 9L13.3125 9.8125L12.5 10.5625L11.125 9.5C11 9.5 10.8125 9.5625 10.625 9.5625C10.25 9.5625 9.875 9.5 9.5 9.375C9.1875 9.25 8.875 9 8.625 8.75C8.375 8.5 8.1875 8.125 8.0625 7.75C7.9375 7.375 7.875 6.9375 7.875 6.4375V6.1875C7.875 5.6875 7.9375 5.25 8.0625 4.875C8.1875 4.5 8.375 4.125 8.625 3.875C8.875 3.625 9.125 3.375 9.5 3.25C9.8125 3.125 10.1875 3.0625 10.625 3.0625C11 3.0625 11.375 3.125 11.75 3.25C12.0625 3.375 12.375 3.625 12.625 3.875C12.875 4.125 13.0625 4.5 13.1875 4.875C13.3125 5.25 13.375 5.6875 13.375 6.1875V6.375ZM12 6.0625C12 5.375 11.875 4.875 11.625 4.5625C11.375 4.1875 11.0625 4.0625 10.625 4.0625C10.1875 4.0625 9.8125 4.25 9.625 4.5625C9.375 4.9375 9.25 5.4375 9.25 6.0625V6.375C9.25 6.6875 9.3125 7 9.375 7.25C9.4375 7.5 9.5 7.75 9.625 7.875C9.75 8.0625 9.875 8.1875 10.0625 8.25C10.25 8.3125 10.4375 8.375 10.625 8.375C11.0625 8.375 11.4375 8.1875 11.625 7.875C11.875 7.5 12 7 12 6.3125V6.0625Z" fill="white"/>
</svg>
