<svg width="60" height="60" viewBox="0 0 60 60" fill="none" xmlns="http://www.w3.org/2000/svg">
<path d="M30 0C13.458 0 0 13.458 0 30C0 46.542 13.458 60 30 60C46.542 60 60 46.542 60 30C60 13.458 46.542 0 30 0ZM30 58C14.561 58 2 45.439 2 30C2 14.561 14.561 2 30 2C45.439 2 58 14.561 58 30C58 45.439 45.439 58 30 58Z" fill="black"/>
<path d="M30 6C29.448 6 29 6.447 29 7V30H14C13.448 30 13 30.447 13 31C13 31.553 13.448 32 14 32H30C30.552 32 31 31.553 31 31V7C31 6.447 30.552 6 30 6Z" fill="#E20614"/>
</svg>
