<svg width="35" height="33" viewBox="0 0 35 33" fill="none" xmlns="http://www.w3.org/2000/svg">
<path d="M34.4123 14.7282L29.1079 9.42379V3.29634C29.1079 2.1884 28.2101 1.29052 27.1005 1.29052C25.9935 1.29052 25.0957 2.1884 25.0957 3.29634V5.41166L21.1462 1.46198C19.1935 -0.489646 15.7984 -0.486184 13.8501 1.46552L0.587206 14.7282C-0.195735 15.5127 -0.195735 16.782 0.587206 17.5653C1.3705 18.3496 2.64234 18.3496 3.42535 17.5653L16.687 4.30232C17.119 3.87255 17.8805 3.87256 18.3103 4.30105L31.5742 17.5653C31.9675 17.9575 32.4803 18.1526 32.9929 18.1526C33.5066 18.1526 34.0202 17.9573 34.4123 17.5653C35.1956 16.7821 35.1956 15.5127 34.4123 14.7282Z" fill="black"/>
<path d="M18.1965 8.10985C17.8112 7.72474 17.1873 7.72474 16.8031 8.10985L5.13699 19.7725C4.95281 19.9566 4.84839 20.208 4.84839 20.4703V28.9766C4.84839 30.9727 6.46683 32.5911 8.46283 32.5911H14.2387V23.6461H20.7596V32.5911H26.5356C28.5315 32.5911 30.15 30.9727 30.15 28.9767V20.4703C30.15 20.208 30.0465 19.9566 29.8614 19.7725L18.1965 8.10985Z" fill="white"/>
</svg>
