<svg width="62" height="61" viewBox="0 0 62 61" fill="none" xmlns="http://www.w3.org/2000/svg">
<path fill-rule="evenodd" clip-rule="evenodd" d="M31.3642 0.00209549C36.4241 0.141744 41.1755 1.51405 45.3303 3.82846L43.8073 6.38319C40.099 4.33373 35.8678 3.11465 31.3642 2.97688V0.00209549ZM46.7547 4.67297C50.8541 7.25762 54.2956 10.7909 56.7698 14.9653L54.2163 16.4881C51.9947 12.737 48.9086 9.55834 45.232 7.22716L46.7547 4.67297ZM57.5758 16.4127C59.7375 20.5583 60.9747 25.2621 61.0146 30.2517H58.0418C58.0026 25.8185 56.9173 21.635 55.0187 17.9376L57.5758 16.4127ZM60.9842 31.9076C60.7606 36.8318 59.3695 41.4513 57.0816 45.4969L54.527 43.9736C56.5502 40.3747 57.7895 36.2757 58.0094 31.9076H60.9842ZM56.2288 46.9164C53.7037 50.8647 50.2941 54.1929 46.2798 56.6219L44.7574 54.0681C48.3486 51.8923 51.4024 48.9182 53.6736 45.3927L56.2288 46.9164ZM44.8392 57.4394C40.8024 59.5914 36.2257 60.8638 31.3642 60.9978V58.023C35.6698 57.8914 39.7259 56.7708 43.3148 54.8821L44.8392 57.4394ZM29.7083 61C24.8216 60.8744 20.2216 59.5983 16.1666 57.4348L17.6911 54.8774C21.2982 56.7777 25.3777 57.9019 29.7083 58.0253V61ZM14.7264 56.6169C10.7274 54.1954 7.32883 50.8817 4.80787 46.9514L7.36382 45.4272C9.63076 48.9348 12.6731 51.8947 16.2487 54.0631L14.7264 56.6169ZM3.9532 45.533C1.65326 41.4788 0.254789 36.8465 0.0303585 31.9076H3.00503C3.22571 36.2903 4.47239 40.4021 6.50772 44.0097L3.9532 45.533ZM0 30.2517C0.0399626 25.2455 1.28554 20.5272 3.46052 16.3715L6.01757 17.8964C4.10577 21.604 3.0121 25.8019 2.9728 30.2517H0ZM4.26849 14.9254C6.75964 10.7369 10.2256 7.19668 14.3526 4.61501L15.8753 7.16931C12.1711 9.49751 9.06036 12.683 6.82201 16.448L4.26849 14.9254ZM15.7798 3.77514C19.9276 1.4838 24.6655 0.129602 29.7083 0V2.97467C25.2218 3.10251 21.0039 4.30326 17.3027 6.32987L15.7798 3.77514Z" fill="#E30613"/>
<path fill-rule="evenodd" clip-rule="evenodd" d="M17.1699 35.7294C17.1699 35.8155 17.1529 35.8921 17.1184 35.9589C17.0845 36.0253 17.0358 36.0817 16.9722 36.1273C16.9091 36.1733 16.8328 36.2082 16.7429 36.2321C16.6536 36.2561 16.554 36.2679 16.4442 36.2679H15.9633V34.4678H16.4889C16.8984 34.4678 17.1029 34.6136 17.1029 34.9057C17.1029 35.0029 17.0791 35.0867 17.0319 35.1567C16.9848 35.2263 16.9076 35.278 16.8008 35.3123C16.8508 35.3213 16.8979 35.3369 16.9426 35.3589C16.9868 35.381 17.0262 35.4097 17.0602 35.4445C17.0936 35.4793 17.1209 35.5207 17.1403 35.5681C17.1602 35.6161 17.1699 35.6697 17.1699 35.7294ZM16.8493 34.9386C16.8493 34.9019 16.8435 34.8671 16.8323 34.8347C16.8212 34.8017 16.8012 34.774 16.7731 34.7504C16.7449 34.7269 16.7065 34.7082 16.6589 34.6945C16.6108 34.6809 16.5501 34.6738 16.4768 34.6738H16.2169V35.2381H16.468C16.5258 35.2381 16.5778 35.232 16.6239 35.2202C16.6706 35.208 16.7109 35.1897 16.7439 35.1647C16.7775 35.1402 16.8036 35.1092 16.8216 35.0716C16.8401 35.0345 16.8493 34.9903 16.8493 34.9386ZM16.9163 35.7379C16.9163 35.6919 16.9061 35.6505 16.8862 35.6138C16.8663 35.5766 16.8376 35.5456 16.7992 35.5207C16.7614 35.4953 16.7153 35.4755 16.6609 35.4619C16.6059 35.4482 16.5448 35.4412 16.4762 35.4412H16.2169V36.0619H16.4845C16.6302 36.0619 16.7381 36.0355 16.8095 35.9834C16.8809 35.9307 16.9163 35.8489 16.9163 35.7379ZM18.7578 36.2001C18.6087 36.2604 18.4528 36.2904 18.2895 36.2904C18.0268 36.2904 17.8248 36.2143 17.6838 36.0624C17.5429 35.9105 17.4725 35.6853 17.4725 35.3876C17.4725 35.2437 17.4919 35.113 17.5308 34.9964C17.5697 34.8797 17.6255 34.781 17.6975 34.6997C17.7694 34.6183 17.8568 34.5553 17.9592 34.5115C18.0618 34.4674 18.1764 34.4453 18.3037 34.4453C18.3901 34.4453 18.4703 34.4523 18.5445 34.4669C18.6184 34.481 18.6894 34.5032 18.7578 34.5327V34.7725C18.6903 34.7368 18.6204 34.7096 18.5485 34.6907C18.4761 34.672 18.3974 34.6626 18.3119 34.6626C18.2245 34.6626 18.1453 34.6785 18.0748 34.71C18.0039 34.7415 17.9437 34.7876 17.8947 34.8478C17.8451 34.908 17.8072 34.9813 17.7805 35.0684C17.7538 35.1548 17.7407 35.2541 17.7407 35.365C17.7407 35.5983 17.7898 35.7741 17.8874 35.8927C17.985 36.0111 18.1288 36.0704 18.3178 36.0704C18.3974 36.0704 18.4737 36.0615 18.547 36.0436C18.6204 36.0257 18.6903 36.0008 18.7578 35.9687V36.2001ZM20.2874 36.2679H19.2295V34.4678H20.2874V34.6738H19.483V35.2324H20.2563V35.4384H19.483V36.059H20.2874V36.2679Z" fill="#E30613"/>
<path fill-rule="evenodd" clip-rule="evenodd" d="M22.3806 34.6804H21.9697C21.9629 34.8712 21.9532 35.0448 21.9396 35.2009C21.9255 35.3565 21.908 35.4929 21.8856 35.61C21.8638 35.727 21.837 35.8239 21.8055 35.9001C21.7745 35.9763 21.7375 36.0308 21.6948 36.0628H22.3806V34.6804ZM22.8382 36.0628L22.8198 36.6581H22.5934V36.2688H21.5383V36.6581H21.312L21.2936 36.0628H21.3149C21.346 36.0628 21.3771 36.0539 21.4072 36.036C21.4379 36.0181 21.4669 35.9862 21.4956 35.9411C21.5238 35.8955 21.551 35.8343 21.5757 35.7572C21.601 35.6796 21.6239 35.5823 21.6447 35.4642C21.6656 35.3462 21.683 35.2056 21.6982 35.0419C21.7132 34.8783 21.7253 34.6874 21.7336 34.4688H22.6342V36.0628H22.8382ZM24.2571 36.2688H24.0035V34.6804H23.5925C23.5838 34.9145 23.5708 35.1186 23.5522 35.2922C23.5334 35.4656 23.5101 35.6133 23.4814 35.7351C23.4532 35.8568 23.4211 35.9523 23.3861 36.0224C23.3512 36.092 23.3152 36.1446 23.2788 36.1794C23.2424 36.2142 23.2049 36.2387 23.1671 36.2533C23.1292 36.2674 23.0864 36.2745 23.0389 36.2745C23 36.2745 22.9592 36.2697 22.9169 36.2603L22.9281 36.0516C22.9801 36.0581 23.0262 36.0445 23.0655 36.0115C23.1049 35.9787 23.1394 35.9293 23.1685 35.8635C23.1982 35.7976 23.2229 35.7172 23.2428 35.6217C23.2628 35.5263 23.2798 35.4191 23.2939 35.3001C23.3079 35.1811 23.3201 35.0519 23.3302 34.9118C23.34 34.7716 23.3488 34.624 23.3565 34.4688H24.2571V36.2688ZM24.8211 35.7328C24.841 35.6824 24.8614 35.6425 24.8818 35.6133C24.9021 35.5836 24.9226 35.5588 24.9434 35.539C24.9644 35.5187 24.9863 35.5024 25.0081 35.4901C25.0304 35.4774 25.0517 35.468 25.0717 35.4619C25.0163 35.4516 24.9668 35.4327 24.9231 35.4054C24.8794 35.3777 24.843 35.3438 24.8137 35.3034C24.7847 35.2629 24.7627 35.2173 24.7482 35.1661C24.7331 35.1153 24.7258 35.0627 24.7258 35.0086C24.7258 34.9295 24.738 34.8571 24.7623 34.7918C24.7866 34.726 24.8244 34.6696 24.876 34.6216C24.928 34.5741 24.9944 34.5365 25.0766 34.5092C25.1591 34.4824 25.2597 34.4688 25.3791 34.4688H25.8421V36.2688H25.5857V35.524H25.3943C25.3573 35.524 25.3233 35.5272 25.2927 35.5334C25.2617 35.5399 25.2339 35.5517 25.2087 35.5686C25.1839 35.5855 25.1611 35.6086 25.1407 35.6377C25.1203 35.6674 25.1018 35.7045 25.0858 35.7492L24.8983 36.2688H24.6151L24.8211 35.7328ZM24.991 34.9931C24.991 35.049 24.9993 35.0974 25.0153 35.1378C25.0314 35.1778 25.0552 35.2127 25.0867 35.2408C25.1178 35.2695 25.1571 35.2907 25.2043 35.3053C25.2514 35.3194 25.3058 35.3265 25.3676 35.3265H25.5857V34.6747H25.3573C25.2359 34.6747 25.1446 34.7025 25.0828 34.7574C25.0217 34.8125 24.991 34.891 24.991 34.9931Z" fill="#E30613"/>
<path fill-rule="evenodd" clip-rule="evenodd" d="M28.3235 35.0194C28.3235 35.0932 28.3094 35.1657 28.2808 35.2381C28.2525 35.31 28.2084 35.3744 28.1487 35.4313C28.0889 35.4882 28.0121 35.5343 27.9194 35.5696C27.8267 35.6048 27.7154 35.6227 27.5867 35.6227H27.3559V36.2688H27.1024V34.4688H27.626C27.7182 34.4688 27.8062 34.4786 27.8908 34.4984C27.9752 34.5181 28.0495 34.5501 28.1137 34.5938C28.1778 34.6381 28.2288 34.6949 28.2667 34.765C28.3045 34.8346 28.3235 34.9197 28.3235 35.0194ZM28.0612 35.0307C28.0612 34.9145 28.0219 34.8257 27.9437 34.7641C27.8655 34.7025 27.7557 34.6719 27.6152 34.6719H27.3559V35.4139H27.5925C27.7425 35.4139 27.8582 35.3824 27.9393 35.3189C28.0204 35.2554 28.0612 35.159 28.0612 35.0307ZM28.7044 36.0516C28.735 36.0591 28.7637 36.0647 28.7898 36.0685C28.8166 36.0722 28.8423 36.0741 28.8666 36.0741C28.905 36.0741 28.94 36.0685 28.973 36.0568C29.0055 36.0454 29.0367 36.0256 29.0667 35.9979C29.0964 35.9702 29.1255 35.9336 29.1527 35.8874C29.1804 35.8414 29.2076 35.7844 29.2353 35.7163L28.5605 34.4688H28.8525L29.2197 35.1628L29.3547 35.4256H29.3563L29.4549 35.1755L29.7414 34.4688H30.009L29.45 35.8061C29.4218 35.8738 29.3912 35.9373 29.3581 35.997C29.3256 36.0562 29.2883 36.108 29.2464 36.1521C29.2051 36.1964 29.1566 36.2307 29.1021 36.256C29.0477 36.2815 28.9847 36.2941 28.9137 36.2941C28.8807 36.2941 28.8457 36.2918 28.8093 36.2872C28.7728 36.2824 28.734 36.2735 28.6931 36.2603L28.7044 36.0516ZM31.4615 36.2688H31.2079V34.6804H30.797C30.7882 34.9145 30.7752 35.1186 30.7566 35.2922C30.7377 35.4656 30.7144 35.6133 30.6857 35.7351C30.6576 35.8568 30.6255 35.9523 30.5906 36.0224C30.5556 36.092 30.5196 36.1446 30.4832 36.1794C30.4467 36.2142 30.4093 36.2387 30.3714 36.2533C30.3336 36.2674 30.2909 36.2745 30.2432 36.2745C30.2044 36.2745 30.1636 36.2697 30.1213 36.2603L30.1324 36.0516C30.1844 36.0581 30.2306 36.0445 30.2699 36.0115C30.3093 35.9787 30.3437 35.9293 30.3729 35.8635C30.4026 35.7976 30.4273 35.7172 30.4473 35.6217C30.4672 35.5263 30.4842 35.4191 30.4983 35.3001C30.5123 35.1811 30.5245 35.0519 30.5347 34.9118C30.5443 34.7716 30.5532 34.624 30.5609 34.4688H31.4615V36.2688ZM33.029 36.2688H31.9711V34.4688H33.029V34.6747H32.2246V35.2333H32.9979V35.4393H32.2246V36.06H33.029V36.2688ZM34.7189 35.7303C34.7189 35.8164 34.702 35.8931 34.6674 35.9598C34.6334 36.0262 34.5849 36.0826 34.5213 36.1282C34.458 36.1742 34.3818 36.2091 34.292 36.2331C34.2026 36.257 34.103 36.2688 33.9933 36.2688H33.5123V34.4688H34.0379C34.4474 34.4688 34.6519 34.6145 34.6519 34.9066C34.6519 35.0038 34.6281 35.0876 34.581 35.1576C34.5338 35.2273 34.4566 35.2789 34.3497 35.3133C34.3997 35.3222 34.4469 35.3378 34.4916 35.3598C34.5358 35.3819 34.5751 35.4106 34.6091 35.4454C34.6426 35.4802 34.6699 35.5216 34.6893 35.569C34.7092 35.6171 34.7189 35.6706 34.7189 35.7303ZM34.3983 34.9395C34.3983 34.9028 34.3925 34.868 34.3813 34.8356C34.3701 34.8026 34.3503 34.7749 34.3221 34.7514C34.2939 34.7278 34.2555 34.7091 34.2079 34.6954C34.1598 34.6818 34.0991 34.6747 34.0257 34.6747H33.7658V35.239H34.017C34.0748 35.239 34.1268 35.2329 34.173 35.2211C34.2196 35.2089 34.2599 35.1906 34.2929 35.1657C34.3264 35.1412 34.3526 35.1101 34.3706 35.0725C34.389 35.0354 34.3983 34.9912 34.3983 34.9395ZM34.4654 35.7388C34.4654 35.6928 34.4551 35.6514 34.4353 35.6147C34.4153 35.5775 34.3867 35.5465 34.3483 35.5216C34.3104 35.4962 34.2643 35.4764 34.2098 35.4628C34.155 35.4492 34.0937 35.4421 34.0253 35.4421H33.7658V36.0628H34.0335C34.1793 36.0628 34.2871 36.0365 34.3584 35.9843C34.4299 35.9316 34.4654 35.8498 34.4654 35.7388ZM35.2517 35.1797H35.3999C35.5053 35.1797 35.5952 35.1938 35.6696 35.2216C35.7439 35.2498 35.8046 35.2874 35.8517 35.3345C35.8988 35.3819 35.9328 35.4375 35.9542 35.5004C35.9756 35.564 35.9862 35.6306 35.9862 35.7017C35.9862 35.7971 35.9731 35.878 35.9469 35.9444C35.9212 36.0111 35.8828 36.0685 35.8327 36.1174C35.7822 36.1658 35.72 36.2034 35.6462 36.2298C35.5719 36.2556 35.4869 36.2688 35.3912 36.2688H35.0069V34.4688H35.2517V35.1797ZM35.7386 35.7195C35.7386 35.666 35.7327 35.6189 35.7206 35.5775C35.7089 35.5361 35.6895 35.5009 35.6622 35.4718C35.6355 35.4431 35.6 35.421 35.5569 35.4054C35.514 35.3904 35.4616 35.3829 35.3999 35.3829H35.2517V36.06H35.3941C35.5146 36.06 35.602 36.0304 35.6569 35.9711C35.7113 35.9119 35.7386 35.8277 35.7386 35.7195ZM36.1319 36.2688V34.4688H36.3768V36.2688H36.1319ZM38.0608 36.2688H37.7408L37.2891 35.5757L36.8348 36.2688H36.5191L37.1379 35.3428L36.5686 34.4688H36.8689L37.2939 35.1101L37.7224 34.4688H38.0142L37.4449 35.3382L38.0608 36.2688Z" fill="#E30613"/>
<path fill-rule="evenodd" clip-rule="evenodd" d="M40.3352 35.0194C40.3352 35.0932 40.3212 35.1657 40.2925 35.2381C40.2644 35.31 40.2202 35.3744 40.1604 35.4313C40.1007 35.4882 40.0239 35.5343 39.9311 35.5696C39.8384 35.6048 39.7271 35.6227 39.5984 35.6227H39.3676V36.2688H39.1141V34.4688H39.6378C39.7301 34.4688 39.8179 34.4786 39.9025 34.4984C39.987 34.5181 40.0613 34.5501 40.1254 34.5938C40.1895 34.6381 40.2405 34.6949 40.2784 34.765C40.3164 34.8346 40.3352 34.9197 40.3352 35.0194ZM40.073 35.0307C40.073 34.9145 40.0337 34.8257 39.9554 34.7641C39.8772 34.7025 39.7674 34.6719 39.6271 34.6719H39.3676V35.4139H39.6042C39.7544 35.4139 39.8699 35.3824 39.9511 35.3189C40.0322 35.2554 40.073 35.159 40.073 35.0307ZM41.8357 36.2688H40.7778V34.4688H41.8357V34.6747H41.0314V35.2333H41.8047V35.4393H41.0314V36.06H41.8357V36.2688ZM43.4382 36.2688H42.3803V34.4688H43.4382V34.6747H42.6339V35.2333H43.4072V35.4393H42.6339V36.06H43.4382V36.2688ZM45.1875 36.2688H44.8688L44.1722 35.3861V36.2688H43.9186V34.4688H44.1722V35.3062L44.8542 34.4688H45.1544L44.4199 35.3245L45.1875 36.2688Z" fill="#E30613"/>
<path d="M49.0523 26.3325H48.0311V32.5699H49.0523V26.3325Z" fill="#E30613"/>
<path d="M35.5428 27.7559H34.5217V32.5718H35.5428V27.7559Z" fill="#E30613"/>
<path d="M28.7813 27.7568H27.7601V32.5729H28.7813V27.7568Z" fill="#E30613"/>
<path d="M30.7333 26.4507H29.7122V32.5708H30.7333V26.4507Z" fill="#E30613"/>
<path d="M39.5446 27.7559H38.5235V32.5718H39.5446V27.7559Z" fill="#E30613"/>
<path d="M24.0304 27.7563H23.0092V32.5724H24.0304V27.7563Z" fill="#E30613"/>
<path d="M22.023 26.4531H21.0019V32.5733H22.023V26.4531Z" fill="#E30613"/>
<path d="M35.0005 27.1374C35.3461 27.1374 35.6263 26.8572 35.6263 26.5116C35.6263 26.1659 35.3461 25.8857 35.0005 25.8857C34.6548 25.8857 34.3746 26.1659 34.3746 26.5116C34.3746 26.8572 34.6548 27.1374 35.0005 27.1374Z" fill="#E30613"/>
<path d="M37.153 32.5744C37.4987 32.5744 37.7789 32.2942 37.7789 31.9486C37.7789 31.6029 37.4987 31.3228 37.153 31.3228C36.8074 31.3228 36.5272 31.6029 36.5272 31.9486C36.5272 32.2942 36.8074 32.5744 37.153 32.5744Z" fill="#E30613"/>
<path d="M28.3335 27.1784C28.6792 27.1784 28.9593 26.8982 28.9593 26.5526C28.9593 26.2069 28.6792 25.9268 28.3335 25.9268C27.9879 25.9268 27.7077 26.2069 27.7077 26.5526C27.7077 26.8982 27.9879 27.1784 28.3335 27.1784Z" fill="#E30613"/>
<path fill-rule="evenodd" clip-rule="evenodd" d="M32.3803 32.5663L33.5762 32.5728L31.9305 30.086L33.5446 27.6934L32.3486 27.6999L31.2534 29.3255L31.2536 30.9977L32.3803 32.5663Z" fill="#E30613"/>
<path fill-rule="evenodd" clip-rule="evenodd" d="M24.6445 27.7037V28.5178C25.0452 28.5178 25.8292 28.4054 25.8316 29.018L25.845 32.5059H26.8523V28.8248C26.8523 28.194 26.3885 27.6994 25.7622 27.6899L24.6445 27.7037Z" fill="#E30613"/>
<path fill-rule="evenodd" clip-rule="evenodd" d="M40.047 27.7803L40.0611 28.5917C40.1262 28.5917 39.9807 28.594 40.0611 28.5917C40.4752 28.5797 41.0253 28.5842 41.0273 29.0972L41.0406 32.585H42.048V28.904C42.048 28.2732 41.5842 27.7786 40.9578 27.769L40.047 27.7803Z" fill="#E30613"/>
<path fill-rule="evenodd" clip-rule="evenodd" d="M42.5106 27.7803L42.5247 28.5917C42.5247 28.5917 42.4442 28.594 42.5247 28.5917C42.9387 28.5797 43.4889 28.5842 43.4909 29.0972L43.5042 32.585H44.5116V28.904C44.5116 28.2732 44.0478 27.7786 43.4215 27.769L42.5106 27.7803Z" fill="#E30613"/>
<path fill-rule="evenodd" clip-rule="evenodd" d="M19.1423 29.0624L19.1557 32.5503H20.163V28.8692C20.163 28.2385 19.6992 27.7439 19.0729 27.7344L17.0098 27.745V28.5535V28.5657C17.4656 28.5657 17.9248 28.5535 18.3826 28.5535C18.8009 28.5988 19.141 28.7302 19.1423 29.0624Z" fill="#E30613"/>
<path d="M15.6349 26.311H14.0993V27.2218H15.6349V26.311Z" fill="#E30613"/>
<path d="M13.5325 31.6377H11.9969V32.5484H13.5325V31.6377Z" fill="#E30613"/>
<path fill-rule="evenodd" clip-rule="evenodd" d="M46.0963 27.8218H47.4624V28.6083H46.6069C46.3986 28.6118 46.2817 28.7107 46.2757 28.9257L46.2829 31.2399C46.2822 31.4892 46.2938 31.6872 46.6137 31.6924H47.4693V32.479H46.1033C45.3167 32.4508 45.3291 31.7469 45.3358 31.1647L45.3235 28.691C45.3651 28.1402 45.6132 27.8391 46.0963 27.8218Z" fill="#E30613"/>
<path fill-rule="evenodd" clip-rule="evenodd" d="M13.5149 26.3379H12.8524C12.4224 26.3509 11.9624 26.6378 11.9624 27.131V29.0354C11.9624 29.4368 12.3087 29.7072 12.6584 29.8192C12.8804 29.89 13.2734 29.8567 13.5149 29.8567V28.9183C13.2907 28.9192 12.9686 28.8638 12.9664 28.5801L12.9587 27.5968C12.9561 27.2634 13.2277 27.1716 13.5149 27.1658V26.3379Z" fill="#E30613"/>
<path fill-rule="evenodd" clip-rule="evenodd" d="M14.0704 32.5594H14.7327C15.1628 32.5464 15.6228 32.2593 15.6228 31.7662V29.8619C15.6228 29.4605 15.2765 29.1901 14.9267 29.0781C14.7048 29.0071 14.3117 29.0406 14.0704 29.0406V29.9789C14.2946 29.9781 14.6165 30.0335 14.6188 30.3172L14.6265 31.3005C14.6292 31.6337 14.3575 31.7257 14.0704 31.7314V32.5594Z" fill="#E30613"/>
<path fill-rule="evenodd" clip-rule="evenodd" d="M18.6261 29.5381H17.537C17.098 29.5381 16.501 29.8994 16.501 30.3804V31.5456V31.6627V31.6774H16.5013C16.5125 32.1158 17.0178 32.4515 17.4376 32.4991L17.4404 32.5049H17.537H18.6261V31.7771V31.7323L17.9477 31.7321C17.2832 31.6904 17.3527 30.3112 17.9512 30.3111L18.6261 30.3108V29.5381Z" fill="#E30613"/>
</svg>
