<svg width="27" height="27" viewBox="0 0 27 27" fill="none" xmlns="http://www.w3.org/2000/svg">
<path d="M20.5274 17.8615C19.6453 16.9906 18.544 16.9906 17.6675 17.8615C16.9989 18.5244 16.3303 19.1874 15.6729 19.8617C15.4931 20.0471 15.3414 20.0864 15.1223 19.9628C14.6897 19.7268 14.229 19.5358 13.8132 19.2773C11.8748 18.0581 10.251 16.4905 8.81265 14.7263C8.09909 13.8498 7.46419 12.9115 7.02032 11.8552C6.93043 11.6417 6.94728 11.5012 7.12146 11.327C7.79007 10.6809 8.44182 10.0179 9.0992 9.35492C10.015 8.43348 10.015 7.35471 9.09358 6.42764C8.57105 5.89949 8.04852 5.38259 7.52599 4.85444C6.98661 4.31505 6.45285 3.77005 5.90784 3.23629C5.02573 2.37664 3.92448 2.37664 3.04798 3.24191C2.37375 3.9049 1.72762 4.58475 1.04215 5.2365C0.40725 5.83769 0.0869904 6.57372 0.0195674 7.43337C-0.0871857 8.8324 0.255548 10.1528 0.738746 11.4394C1.72762 14.1026 3.2334 16.468 5.05944 18.6368C7.52599 21.5697 10.4701 23.8902 13.9143 25.5645C15.4651 26.3174 17.072 26.8961 18.8193 26.9917C20.0217 27.0591 21.0668 26.7557 21.9039 25.8174C22.477 25.1769 23.1232 24.5925 23.73 23.9801C24.629 23.0699 24.6346 21.9686 23.7412 21.0697C22.6737 19.9965 21.6005 18.929 20.5274 17.8615Z" fill="#1A1919"/>
<path d="M19.4543 13.3834L21.5276 13.0295C21.2017 11.1248 20.3027 9.39985 18.9374 8.02891C17.4934 6.58494 15.6674 5.67473 13.6559 5.3938L13.3638 7.47829C14.9201 7.69742 16.336 8.39974 17.4541 9.51784C18.5104 10.5741 19.2015 11.9114 19.4543 13.3834Z" fill="#E20614"/>
<path d="M22.6963 4.3712C20.3028 1.97768 17.2744 0.466281 13.9313 -6.10352e-05L13.6392 2.08443C16.5271 2.48897 19.1454 3.7981 21.213 5.86012C23.1739 7.82101 24.4606 10.2988 24.9269 13.0238L27.0001 12.6698C26.4551 9.5122 24.9662 6.64672 22.6963 4.3712Z" fill="#E20614"/>
</svg>
