<svg width="25" height="25" viewBox="0 0 25 25" fill="none" xmlns="http://www.w3.org/2000/svg">
<path d="M25 12.5003C25 5.59607 19.4035 0 12.5002 0C5.5965 0 0 5.59607 0 12.5003C0 19.4035 5.5965 25 12.5002 25C19.4035 25 25 19.4035 25 12.5003Z" fill="white"/>
<path d="M8 9.41742C8 8.74816 8.18297 8.07 8.54899 7.38308C8.91489 6.69617 9.44901 6.12728 10.151 5.67633C10.853 5.22552 11.672 5 12.608 5C13.4779 5 14.246 5.18859 14.912 5.56537C15.578 5.94235 16.0924 6.45492 16.4555 7.10302C16.8185 7.75131 17 8.45573 17 9.21661C17 9.81551 16.8965 10.3405 16.6895 10.7912C16.4825 11.2422 16.2364 11.6314 15.9515 11.959C15.6664 12.2866 15.1549 12.8379 14.417 13.6129C14.2129 13.8314 14.0493 14.0234 13.9265 14.1889C13.8034 14.3545 13.7119 14.506 13.6519 14.6433C13.5919 14.7807 13.5453 14.9181 13.5124 15.0555C13.4794 15.1928 13.4299 15.4342 13.364 15.7794C13.2499 16.5122 12.8929 16.8785 12.293 16.8785C11.9809 16.8785 11.7184 16.7588 11.5055 16.5191C11.2924 16.2797 11.186 15.9239 11.186 15.4518C11.186 14.86 11.2639 14.3474 11.42 13.9141C11.576 13.4808 11.7829 13.1004 12.041 12.7728C12.2989 12.4452 12.6469 12.056 13.085 11.605C13.4689 11.2105 13.7465 10.9128 13.9175 10.712C14.0885 10.5112 14.2325 10.2877 14.3495 10.0409C14.4665 9.7944 14.525 9.52674 14.525 9.23778C14.525 8.67418 14.3464 8.19865 13.9895 7.81109C13.6324 7.42372 13.1719 7.22985 12.608 7.22985C11.9479 7.22985 11.4619 7.42536 11.15 7.81638C10.8379 8.20741 10.574 8.78336 10.358 9.54425C10.1539 10.3405 9.7669 10.7384 9.19694 10.7384C8.86082 10.7384 8.57734 10.5994 8.34644 10.321C8.11547 10.0427 8 9.74154 8 9.41742ZM12.392 21C12.0259 21 11.7065 20.8608 11.4335 20.5825C11.1604 20.3043 11.024 19.9151 11.024 19.4148C11.024 18.9709 11.1559 18.5976 11.42 18.2946C11.6839 17.9917 12.0079 17.8402 12.392 17.8402C12.77 17.8402 13.0879 17.9917 13.346 18.2946C13.6039 18.5976 13.733 18.9709 13.733 19.4148C13.733 19.908 13.598 20.2955 13.328 20.5773C13.0579 20.859 12.746 21 12.392 21Z" fill="#2B2929"/>
</svg>
