<svg width="290" height="167" viewBox="0 0 290 167" fill="none" xmlns="http://www.w3.org/2000/svg">
<g filter="url(#filter0_f_258_4)">
<path d="M2 95.1026C2 81.7911 12.8514 71 26.2373 71H263.763C277.149 71 288 81.7911 288 95.1026V140.897C288 154.209 277.149 165 263.763 165H26.2373C12.8514 165 2 154.209 2 140.897V95.1026Z" fill="white" fill-opacity="0.7"/>
</g>
<g filter="url(#filter1_d_258_4)">
<path d="M174 44C174 60.0163 161.016 73 145 73C128.984 73 116 60.0163 116 44C116 27.9837 128.984 15 145 15C161.016 15 174 27.9837 174 44Z" fill="white"/>
</g>
<g filter="url(#filter2_d_258_4)">
<path fill-rule="evenodd" clip-rule="evenodd" d="M145 70.5833C159.682 70.5833 171.583 58.6816 171.583 44C171.583 29.3184 159.682 17.4167 145 17.4167C130.318 17.4167 118.417 29.3184 118.417 44C118.417 58.6816 130.318 70.5833 145 70.5833ZM145 73C161.016 73 174 60.0163 174 44C174 27.9837 161.016 15 145 15C128.984 15 116 27.9837 116 44C116 60.0163 128.984 73 145 73Z" fill="#E30613"/>
</g>
<path d="M162 43C162 52.3888 154.389 60 145 60C135.611 60 128 52.3888 128 43C128 33.6112 135.611 26 145 26C154.389 26 162 33.6112 162 43Z" fill="#E30613"/>
<path d="M54.2568 117C52.1058 117 50.2605 116.676 48.7208 116.028C47.1812 115.38 46.0151 114.535 45.2227 113.493C44.4528 112.428 44.0453 111.271 44 110.021C44 109.836 44.0679 109.674 44.2038 109.535C44.3623 109.373 44.5434 109.292 44.7472 109.292H49.0265C49.2982 109.292 49.5133 109.35 49.6718 109.465C49.8529 109.558 50.0341 109.708 50.2152 109.917C50.5096 110.519 50.985 111.016 51.6416 111.41C52.2983 111.803 53.17 112 54.2568 112C55.5474 112 56.5323 111.792 57.2116 111.375C57.8908 110.958 58.2304 110.391 58.2304 109.674C58.2304 109.164 58.0493 108.748 57.687 108.424C57.3474 108.1 56.804 107.81 56.0568 107.556C55.3096 107.301 54.2002 107.012 52.7285 106.688C50.0114 106.109 47.9737 105.264 46.6151 104.153C45.2793 103.019 44.6113 101.41 44.6113 99.3264C44.6113 97.9144 44.9962 96.6528 45.7661 95.5417C46.5359 94.4306 47.634 93.5625 49.0605 92.9375C50.4869 92.3125 52.1511 92 54.053 92C56.0229 92 57.7323 92.3472 59.1814 93.0417C60.6305 93.7361 61.7286 94.6157 62.4758 95.6806C63.2456 96.7222 63.6532 97.7523 63.6985 98.7708C63.6985 98.9792 63.6305 99.1528 63.4947 99.2917C63.3588 99.4306 63.189 99.5 62.9853 99.5H58.5022C58.2304 99.5 58.004 99.4537 57.8229 99.3611C57.6644 99.2685 57.5172 99.1181 57.3814 98.9097C57.2455 98.3773 56.8719 97.9259 56.2606 97.5556C55.6719 97.1852 54.936 97 54.053 97C53.0341 97 52.253 97.1852 51.7096 97.5556C51.1662 97.9259 50.8945 98.4699 50.8945 99.1875C50.8945 99.6736 51.0416 100.079 51.336 100.403C51.653 100.727 52.1511 101.028 52.8303 101.306C53.5322 101.56 54.5285 101.826 55.8191 102.104C57.9248 102.498 59.6003 102.995 60.8456 103.597C62.1135 104.176 63.0419 104.94 63.6305 105.889C64.2192 106.815 64.5136 107.984 64.5136 109.396C64.5136 110.947 64.0721 112.301 63.189 113.458C62.3286 114.593 61.1173 115.472 59.555 116.097C58.0153 116.699 56.2493 117 54.2568 117Z" fill="#E30613"/>
<path d="M66.1894 116.653C66.0083 116.653 65.8385 116.583 65.68 116.444C65.5441 116.282 65.4762 116.109 65.4762 115.924C65.4762 115.785 65.4875 115.681 65.5102 115.611L73.4915 93.3194C73.5594 93.0417 73.7066 92.8102 73.933 92.625C74.1594 92.4398 74.4537 92.3472 74.816 92.3472H79.8425C80.2048 92.3472 80.4991 92.4398 80.7255 92.625C80.952 92.8102 81.0991 93.0417 81.1671 93.3194L89.1144 115.611L89.1823 115.924C89.1823 116.109 89.1031 116.282 88.9446 116.444C88.8087 116.583 88.6389 116.653 88.4351 116.653H84.2577C83.7143 116.653 83.352 116.41 83.1709 115.924L81.8463 112.382H72.7782L71.4876 115.924C71.3065 116.41 70.9329 116.653 70.3669 116.653H66.1894ZM80.4878 107.382L77.3293 98.2153L74.1707 107.382H80.4878Z" fill="#E30613"/>
<path d="M92.7083 116.653C92.4819 116.653 92.2781 116.572 92.097 116.41C91.9385 116.225 91.8593 116.016 91.8593 115.785V93.2153C91.8593 92.9606 91.9385 92.7523 92.097 92.5903C92.2781 92.4282 92.4819 92.3472 92.7083 92.3472H97.1914C97.4405 92.3472 97.6443 92.4282 97.8028 92.5903C97.9613 92.7523 98.0405 92.9606 98.0405 93.2153V111.41H108.331C108.58 111.41 108.784 111.502 108.943 111.688C109.101 111.85 109.18 112.058 109.18 112.312V115.785C109.18 116.016 109.101 116.225 108.943 116.41C108.784 116.572 108.58 116.653 108.331 116.653H92.7083Z" fill="#E30613"/>
<path d="M112.973 116.653C112.747 116.653 112.543 116.572 112.362 116.41C112.203 116.225 112.124 116.016 112.124 115.785V93.2153C112.124 92.9606 112.203 92.7523 112.362 92.5903C112.543 92.4282 112.747 92.3472 112.973 92.3472H116.573C117.139 92.3472 117.524 92.5671 117.728 93.0069L126.015 106.34V93.2153C126.015 92.9606 126.094 92.7523 126.253 92.5903C126.434 92.4282 126.638 92.3472 126.864 92.3472H130.94C131.189 92.3472 131.393 92.4282 131.551 92.5903C131.709 92.7523 131.789 92.9606 131.789 93.2153V115.75C131.789 116.005 131.709 116.225 131.551 116.41C131.393 116.572 131.189 116.653 130.94 116.653H127.306C126.808 116.653 126.434 116.433 126.185 115.993L117.898 103.146V115.785C117.898 116.016 117.819 116.225 117.66 116.41C117.502 116.572 117.298 116.653 117.049 116.653H112.973Z" fill="#E30613"/>
<path d="M137.384 116.653C137.158 116.653 136.954 116.572 136.773 116.41C136.614 116.225 136.535 116.016 136.535 115.785V93.2153C136.535 92.9606 136.614 92.7523 136.773 92.5903C136.954 92.4282 137.158 92.3472 137.384 92.3472H141.935C142.184 92.3472 142.388 92.4282 142.546 92.5903C142.728 92.7523 142.818 92.9606 142.818 93.2153V115.785C142.818 116.039 142.728 116.248 142.546 116.41C142.388 116.572 142.184 116.653 141.935 116.653H137.384Z" fill="#E30613"/>
<path d="M148.396 116.653C148.169 116.653 147.965 116.572 147.784 116.41C147.626 116.225 147.546 116.016 147.546 115.785V93.2153C147.546 92.9606 147.626 92.7523 147.784 92.5903C147.965 92.4282 148.169 92.3472 148.396 92.3472H152.675C152.924 92.3472 153.128 92.4282 153.286 92.5903C153.445 92.7523 153.524 92.9606 153.524 93.2153V100.924L159.807 93.0069C160.079 92.5671 160.52 92.3472 161.132 92.3472H166.022C166.226 92.3472 166.396 92.4282 166.532 92.5903C166.668 92.7292 166.735 92.8912 166.735 93.0764C166.735 93.2384 166.702 93.3773 166.634 93.4931L158.483 103.979L167.245 115.507C167.336 115.6 167.381 115.738 167.381 115.924C167.381 116.109 167.313 116.282 167.177 116.444C167.041 116.583 166.871 116.653 166.668 116.653H161.607C161.064 116.653 160.611 116.421 160.249 115.958L153.524 107.382V115.785C153.524 116.039 153.445 116.248 153.286 116.41C153.128 116.572 152.924 116.653 152.675 116.653H148.396Z" fill="#E30613"/>
<path d="M170.916 116.653C170.689 116.653 170.486 116.572 170.305 116.41C170.146 116.225 170.067 116.016 170.067 115.785V93.2153C170.067 92.9606 170.146 92.7523 170.305 92.5903C170.486 92.4282 170.689 92.3472 170.916 92.3472H175.467C175.716 92.3472 175.92 92.4282 176.078 92.5903C176.259 92.7523 176.35 92.9606 176.35 93.2153V115.785C176.35 116.039 176.259 116.248 176.078 116.41C175.92 116.572 175.716 116.653 175.467 116.653H170.916Z" fill="#E30613"/>
<path d="M181.284 116.653C181.058 116.653 180.854 116.572 180.673 116.41C180.515 116.225 180.435 116.016 180.435 115.785V111.375C180.435 111.12 180.515 110.912 180.673 110.75C180.854 110.588 181.058 110.507 181.284 110.507H185.598C185.847 110.507 186.05 110.588 186.209 110.75C186.367 110.912 186.447 111.12 186.447 111.375V115.785C186.447 116.016 186.367 116.225 186.209 116.41C186.05 116.572 185.847 116.653 185.598 116.653H181.284Z" fill="#E30613"/>
<path d="M191.38 116.653C191.153 116.653 190.95 116.572 190.768 116.41C190.61 116.225 190.531 116.016 190.531 115.785V93.2153C190.531 92.9606 190.61 92.7523 190.768 92.5903C190.95 92.4282 191.153 92.3472 191.38 92.3472H195.048C195.591 92.3472 195.987 92.6019 196.236 93.1111L202.214 104.049L208.191 93.1111C208.44 92.6019 208.837 92.3472 209.38 92.3472H213.014C213.263 92.3472 213.467 92.4282 213.625 92.5903C213.807 92.7523 213.897 92.9606 213.897 93.2153V115.785C213.897 116.039 213.807 116.248 213.625 116.41C213.467 116.572 213.263 116.653 213.014 116.653H208.973C208.724 116.653 208.508 116.572 208.327 116.41C208.169 116.248 208.09 116.039 208.09 115.785V102.764L204.286 110.021C203.991 110.553 203.595 110.819 203.097 110.819H201.331C201.037 110.819 200.799 110.75 200.618 110.611C200.437 110.472 200.278 110.275 200.142 110.021L196.304 102.764V115.785C196.304 116.016 196.225 116.225 196.067 116.41C195.908 116.572 195.704 116.653 195.455 116.653H191.38Z" fill="#E30613"/>
<path d="M219.505 116.653C219.279 116.653 219.075 116.572 218.894 116.41C218.735 116.225 218.656 116.016 218.656 115.785V93.2153C218.656 92.9606 218.735 92.7523 218.894 92.5903C219.075 92.4282 219.279 92.3472 219.505 92.3472H228.336C231.664 92.3472 234.245 93.1574 236.079 94.7778C237.913 96.3981 238.875 98.7477 238.966 101.826C238.989 102.498 239 103.389 239 104.5C239 105.611 238.989 106.491 238.966 107.139C238.853 110.356 237.913 112.752 236.147 114.326C234.404 115.877 231.856 116.653 228.505 116.653H219.505ZM228.336 111.653C229.83 111.653 230.928 111.294 231.63 110.576C232.332 109.836 232.706 108.667 232.751 107.069C232.796 106.398 232.819 105.53 232.819 104.465C232.819 103.4 232.796 102.544 232.751 101.896C232.706 100.345 232.298 99.1991 231.528 98.4583C230.781 97.7176 229.66 97.3472 228.166 97.3472H224.77V111.653H228.336Z" fill="#E30613"/>
<path d="M37.5328 152C37.3713 152 37.2422 151.953 37.1453 151.858C37.0484 151.764 37 151.638 37 151.481V135.756C37 135.598 37.0484 135.472 37.1453 135.378C37.2422 135.283 37.3713 135.236 37.5328 135.236H37.9445C38.1059 135.236 38.2351 135.283 38.3319 135.378C38.4288 135.472 38.4772 135.598 38.4772 135.756V136.865C39.4136 135.622 40.7697 135 42.5456 135C44.2892 135 45.5727 135.543 46.3961 136.629C47.2356 137.7 47.6796 139.022 47.728 140.596C47.7441 140.753 47.7522 141.013 47.7522 141.375C47.7522 141.737 47.7441 141.997 47.728 142.154C47.6796 143.728 47.2356 145.058 46.3961 146.144C45.5727 147.215 44.2892 147.75 42.5456 147.75C40.7859 147.75 39.4297 147.128 38.4772 145.885V151.481C38.4772 151.638 38.4288 151.764 38.3319 151.858C38.2351 151.953 38.1059 152 37.9445 152H37.5328ZM42.4003 146.381C43.708 146.381 44.6605 145.979 45.2579 145.176C45.8714 144.358 46.2023 143.311 46.2508 142.036C46.2669 141.879 46.275 141.658 46.275 141.375C46.275 139.911 45.9844 138.715 45.4032 137.786C44.822 136.842 43.821 136.369 42.4003 136.369C41.1249 136.369 40.1643 136.787 39.5185 137.621C38.8728 138.439 38.5257 139.407 38.4772 140.525L38.453 141.446L38.4772 142.367C38.4934 143.044 38.6467 143.689 38.9373 144.303C39.2279 144.901 39.6638 145.397 40.245 145.79C40.8262 146.184 41.5447 146.381 42.4003 146.381Z" fill="#E30613"/>
<path d="M55.7208 147.75C54.1871 147.75 52.952 147.262 52.0157 146.286C51.0793 145.294 50.5465 143.972 50.4174 142.319L50.3932 141.375L50.4174 140.431C50.5465 138.794 51.0712 137.479 51.9915 136.488C52.9278 135.496 54.171 135 55.7208 135C57.3998 135 58.7075 135.543 59.6439 136.629C60.5964 137.715 61.0727 139.203 61.0727 141.092V141.446C61.0727 141.603 61.0162 141.729 60.9032 141.824C60.8063 141.918 60.6772 141.965 60.5157 141.965H51.8946V142.201C51.9269 142.941 52.0964 143.634 52.4031 144.279C52.726 144.909 53.17 145.42 53.7351 145.814C54.3001 146.192 54.962 146.381 55.7208 146.381C56.6088 146.381 57.3272 146.215 57.8761 145.885C58.4412 145.538 58.8448 145.192 59.0869 144.846C59.2322 144.657 59.3372 144.539 59.4018 144.492C59.4825 144.444 59.6197 144.421 59.8134 144.421H60.2009C60.3462 144.421 60.4673 144.46 60.5642 144.539C60.661 144.618 60.7095 144.72 60.7095 144.846C60.7095 145.176 60.4915 145.578 60.0556 146.05C59.6359 146.506 59.0466 146.908 58.2878 147.254C57.529 147.585 56.6733 147.75 55.7208 147.75ZM59.5955 140.643V140.549C59.5955 139.337 59.2403 138.337 58.53 137.55C57.8357 136.763 56.8994 136.369 55.7208 136.369C54.5423 136.369 53.6059 136.763 52.9117 137.55C52.2336 138.337 51.8946 139.337 51.8946 140.549V140.643H59.5955Z" fill="#E30613"/>
<path d="M75.9393 135.236C76.0685 135.236 76.1815 135.283 76.2783 135.378C76.3752 135.472 76.4236 135.575 76.4236 135.685V146.994C76.4236 147.152 76.3752 147.278 76.2783 147.372C76.1815 147.467 76.0523 147.514 75.8909 147.514H75.4792C75.3177 147.514 75.1886 147.467 75.0917 147.372C74.9948 147.278 74.9464 147.152 74.9464 146.994V138.164L71.4108 144.846C71.2816 145.066 71.1605 145.231 71.0475 145.342C70.9507 145.452 70.7973 145.507 70.5874 145.507H70.1031C69.8932 145.507 69.7318 145.452 69.6187 145.342C69.5219 145.231 69.4089 145.066 69.2797 144.846L65.7441 138.353V146.994C65.7441 147.152 65.6956 147.278 65.5988 147.372C65.5019 147.467 65.3727 147.514 65.2113 147.514H64.7996C64.6382 147.514 64.509 147.467 64.4122 147.372C64.3153 147.278 64.2669 147.152 64.2669 146.994V135.685C64.2669 135.575 64.3153 135.472 64.4122 135.378C64.509 135.283 64.622 135.236 64.7512 135.236H65.3082C65.5503 135.236 65.736 135.354 65.8652 135.59L70.3452 143.854L74.8253 135.59C74.9545 135.354 75.1401 135.236 75.3823 135.236H75.9393Z" fill="#E30613"/>
<path d="M85.1432 147.75C83.4641 147.75 82.1564 147.254 81.22 146.262C80.2998 145.255 79.8155 143.956 79.767 142.367L79.7428 141.375L79.767 140.383C79.8155 138.794 80.2998 137.503 81.22 136.511C82.1564 135.504 83.4641 135 85.1432 135C86.8222 135 88.1218 135.504 89.042 136.511C89.9784 137.503 90.4708 138.794 90.5193 140.383C90.5354 140.541 90.5435 140.871 90.5435 141.375C90.5435 141.879 90.5354 142.209 90.5193 142.367C90.4708 143.956 89.9784 145.255 89.042 146.262C88.1218 147.254 86.8222 147.75 85.1432 147.75ZM85.1432 146.381C86.2894 146.381 87.2096 146.026 87.9039 145.318C88.6142 144.594 88.9936 143.571 89.042 142.249C89.0582 142.091 89.0663 141.8 89.0663 141.375C89.0663 140.95 89.0582 140.659 89.042 140.501C88.9936 139.179 88.6142 138.164 87.9039 137.456C87.2096 136.731 86.2894 136.369 85.1432 136.369C83.9969 136.369 83.0686 136.731 82.3582 137.456C81.664 138.164 81.2927 139.179 81.2443 140.501L81.22 141.375L81.2443 142.249C81.2927 143.571 81.664 144.594 82.3582 145.318C83.0686 146.026 83.9969 146.381 85.1432 146.381Z" fill="#E30613"/>
<path d="M94.3847 147.514C94.2232 147.514 94.0941 147.467 93.9972 147.372C93.9003 147.278 93.8519 147.152 93.8519 146.994V135.756C93.8519 135.598 93.9003 135.472 93.9972 135.378C94.0941 135.283 94.2232 135.236 94.3847 135.236H94.7963C94.9578 135.236 95.0869 135.283 95.1838 135.378C95.2807 135.472 95.3291 135.598 95.3291 135.756V140.549H102.885V135.756C102.885 135.598 102.933 135.472 103.03 135.378C103.127 135.283 103.256 135.236 103.417 135.236H103.829C103.991 135.236 104.12 135.283 104.217 135.378C104.313 135.472 104.362 135.598 104.362 135.756V146.994C104.362 147.152 104.313 147.278 104.217 147.372C104.12 147.467 103.991 147.514 103.829 147.514H103.417C103.256 147.514 103.127 147.467 103.03 147.372C102.933 147.278 102.885 147.152 102.885 146.994V141.918H95.3291V146.994C95.3291 147.152 95.2807 147.278 95.1838 147.372C95.0869 147.467 94.9578 147.514 94.7963 147.514H94.3847Z" fill="#E30613"/>
<path d="M112.128 147.514C111.967 147.514 111.838 147.467 111.741 147.372C111.644 147.278 111.596 147.152 111.596 146.994V136.606H107.164C107.002 136.606 106.873 136.558 106.776 136.464C106.68 136.369 106.631 136.244 106.631 136.086V135.756C106.631 135.598 106.68 135.472 106.776 135.378C106.873 135.283 107.002 135.236 107.164 135.236H117.504C117.666 135.236 117.795 135.283 117.892 135.378C117.989 135.472 118.037 135.598 118.037 135.756V136.086C118.037 136.244 117.989 136.369 117.892 136.464C117.795 136.558 117.666 136.606 117.504 136.606H113.073V146.994C113.073 147.152 113.024 147.278 112.927 147.372C112.831 147.467 112.701 147.514 112.54 147.514H112.128Z" fill="#E30613"/>
<path d="M127.091 147.514C126.93 147.514 126.801 147.467 126.704 147.372C126.607 147.278 126.559 147.152 126.559 146.994V135.756C126.559 135.598 126.607 135.472 126.704 135.378C126.801 135.283 126.93 135.236 127.091 135.236H133.945C134.106 135.236 134.235 135.283 134.332 135.378C134.429 135.472 134.477 135.598 134.477 135.756V136.086C134.477 136.244 134.429 136.369 134.332 136.464C134.235 136.558 134.106 136.606 133.945 136.606H128.036V146.994C128.036 147.152 127.987 147.278 127.891 147.372C127.794 147.467 127.664 147.514 127.503 147.514H127.091Z" fill="#E30613"/>
<path d="M146.706 135.236C146.835 135.236 146.948 135.283 147.045 135.378C147.142 135.472 147.19 135.575 147.19 135.685V146.994C147.19 147.152 147.142 147.278 147.045 147.372C146.948 147.467 146.819 147.514 146.658 147.514H146.246C146.085 147.514 145.955 147.467 145.859 147.372C145.762 147.278 145.713 147.152 145.713 146.994V137.644L138.255 147.16C138.077 147.396 137.867 147.514 137.625 147.514H137.165C137.036 147.514 136.923 147.467 136.826 147.372C136.729 147.278 136.68 147.168 136.68 147.042V135.756C136.68 135.598 136.729 135.472 136.826 135.378C136.923 135.283 137.052 135.236 137.213 135.236H137.625C137.786 135.236 137.915 135.283 138.012 135.378C138.109 135.472 138.158 135.598 138.158 135.756V145.106L145.616 135.59C145.794 135.354 146.004 135.236 146.246 135.236H146.706Z" fill="#E30613"/>
<path d="M150.162 150.111C150 150.111 149.871 150.064 149.774 149.969C149.678 149.875 149.629 149.749 149.629 149.592V146.664C149.629 146.506 149.678 146.381 149.774 146.286C149.871 146.192 150 146.144 150.162 146.144H150.235C151.736 146.113 152.487 143.618 152.487 138.66V135.756C152.487 135.598 152.535 135.472 152.632 135.378C152.729 135.283 152.858 135.236 153.019 135.236H159.994C160.155 135.236 160.284 135.283 160.381 135.378C160.478 135.472 160.527 135.598 160.527 135.756V146.097H161.713C161.875 146.097 162.004 146.144 162.101 146.239C162.198 146.333 162.246 146.459 162.246 146.617V149.592C162.246 149.749 162.198 149.875 162.101 149.969C162.004 150.064 161.875 150.111 161.713 150.111H161.302C161.14 150.111 161.011 150.064 160.914 149.969C160.817 149.875 160.769 149.749 160.769 149.592V147.514H151.106V149.592C151.106 149.749 151.058 149.875 150.961 149.969C150.864 150.064 150.735 150.111 150.574 150.111H150.162ZM159.049 146.097V136.606H153.964V138.825C153.964 142.398 153.431 144.838 152.366 146.144L159.049 146.097Z" fill="#E30613"/>
<path d="M165.616 152C165.455 152 165.326 151.953 165.229 151.858C165.132 151.764 165.084 151.638 165.084 151.481V135.756C165.084 135.598 165.132 135.472 165.229 135.378C165.326 135.283 165.455 135.236 165.616 135.236H166.028C166.189 135.236 166.319 135.283 166.415 135.378C166.512 135.472 166.561 135.598 166.561 135.756V136.865C167.497 135.622 168.853 135 170.629 135C172.373 135 173.656 135.543 174.48 136.629C175.319 137.7 175.763 139.022 175.812 140.596C175.828 140.753 175.836 141.013 175.836 141.375C175.836 141.737 175.828 141.997 175.812 142.154C175.763 143.728 175.319 145.058 174.48 146.144C173.656 147.215 172.373 147.75 170.629 147.75C168.869 147.75 167.513 147.128 166.561 145.885V151.481C166.561 151.638 166.512 151.764 166.415 151.858C166.319 151.953 166.189 152 166.028 152H165.616ZM170.484 146.381C171.792 146.381 172.744 145.979 173.341 145.176C173.955 144.358 174.286 143.311 174.334 142.036C174.35 141.879 174.359 141.658 174.359 141.375C174.359 139.911 174.068 138.715 173.487 137.786C172.906 136.842 171.905 136.369 170.484 136.369C169.208 136.369 168.248 136.787 167.602 137.621C166.956 138.439 166.609 139.407 166.561 140.525L166.537 141.446L166.561 142.367C166.577 143.044 166.73 143.689 167.021 144.303C167.311 144.901 167.747 145.397 168.329 145.79C168.91 146.184 169.628 146.381 170.484 146.381Z" fill="#E30613"/>
<path d="M182.521 147.75C181.746 147.75 181.028 147.593 180.366 147.278C179.704 146.963 179.171 146.538 178.767 146.003C178.38 145.468 178.186 144.877 178.186 144.232C178.186 143.193 178.614 142.343 179.47 141.682C180.341 141.021 181.512 140.596 182.981 140.407L186.807 139.887V139.061C186.807 138.195 186.533 137.534 185.984 137.078C185.451 136.606 184.628 136.369 183.514 136.369C182.69 136.369 182.012 136.527 181.48 136.842C180.963 137.156 180.632 137.534 180.487 137.975C180.422 138.164 180.341 138.298 180.245 138.376C180.164 138.439 180.051 138.471 179.906 138.471H179.566C179.421 138.471 179.292 138.424 179.179 138.329C179.082 138.219 179.034 138.093 179.034 137.951C179.034 137.605 179.195 137.204 179.518 136.747C179.841 136.275 180.341 135.866 181.019 135.519C181.698 135.173 182.529 135 183.514 135C185.241 135 186.468 135.401 187.195 136.204C187.921 137.007 188.284 137.983 188.284 139.132V146.994C188.284 147.152 188.236 147.278 188.139 147.372C188.042 147.467 187.913 147.514 187.752 147.514H187.34C187.179 147.514 187.049 147.467 186.953 147.372C186.856 147.278 186.807 147.152 186.807 146.994V145.885C186.452 146.404 185.927 146.845 185.233 147.207C184.555 147.569 183.651 147.75 182.521 147.75ZM182.763 146.381C183.942 146.381 184.91 146.003 185.669 145.247C186.428 144.492 186.807 143.406 186.807 141.989V141.186L183.683 141.611C182.359 141.784 181.359 142.083 180.68 142.508C180.002 142.933 179.663 143.469 179.663 144.114C179.663 144.838 179.97 145.397 180.584 145.79C181.213 146.184 181.94 146.381 182.763 146.381Z" fill="#E30613"/>
<path d="M192.647 147.514C192.485 147.514 192.356 147.467 192.259 147.372C192.162 147.278 192.114 147.152 192.114 146.994V135.756C192.114 135.598 192.162 135.472 192.259 135.378C192.356 135.283 192.485 135.236 192.647 135.236H197.417C198.725 135.236 199.742 135.527 200.469 136.11C201.211 136.692 201.583 137.471 201.583 138.447C201.583 139.156 201.445 139.699 201.171 140.076C200.913 140.454 200.485 140.777 199.887 141.044C200.501 141.265 200.977 141.666 201.316 142.249C201.655 142.831 201.825 143.445 201.825 144.09C201.825 145.192 201.437 146.042 200.662 146.64C199.904 147.223 198.862 147.514 197.538 147.514H192.647ZM197.175 140.643C198.063 140.643 198.774 140.446 199.306 140.053C199.839 139.659 200.105 139.124 200.105 138.447C200.105 137.786 199.847 137.314 199.331 137.031C198.83 136.747 198.112 136.606 197.175 136.606H193.591V140.643H197.175ZM197.345 146.144C198.265 146.144 198.991 145.971 199.524 145.625C200.073 145.263 200.348 144.751 200.348 144.09C200.348 143.382 200.097 142.862 199.597 142.532C199.113 142.186 198.362 142.013 197.345 142.013H193.591V146.144H197.345Z" fill="#E30613"/>
<path d="M204.44 147.514C204.279 147.514 204.141 147.467 204.028 147.372C203.931 147.262 203.883 147.128 203.883 146.971V146.593C203.883 146.451 203.923 146.333 204.004 146.239C204.101 146.144 204.222 146.097 204.367 146.097C205.191 146.097 205.82 145.515 206.256 144.35C206.692 143.185 206.91 141.288 206.91 138.66V135.756C206.91 135.598 206.959 135.472 207.055 135.378C207.152 135.283 207.281 135.236 207.443 135.236H214.369C214.53 135.236 214.659 135.283 214.756 135.378C214.853 135.472 214.902 135.598 214.902 135.756V146.994C214.902 147.152 214.853 147.278 214.756 147.372C214.659 147.467 214.53 147.514 214.369 147.514H213.957C213.796 147.514 213.667 147.467 213.57 147.372C213.473 147.278 213.424 147.152 213.424 146.994V136.606H208.387V138.825C208.387 144.618 207.072 147.514 204.44 147.514Z" fill="#E30613"/>
<path d="M228.839 135.236C228.969 135.236 229.082 135.283 229.178 135.378C229.275 135.472 229.324 135.575 229.324 135.685V146.994C229.324 147.152 229.275 147.278 229.178 147.372C229.082 147.467 228.952 147.514 228.791 147.514H228.379C228.218 147.514 228.089 147.467 227.992 147.372C227.895 147.278 227.847 147.152 227.847 146.994V137.644L220.388 147.16C220.21 147.396 220 147.514 219.758 147.514H219.298C219.169 147.514 219.056 147.467 218.959 147.372C218.862 147.278 218.814 147.168 218.814 147.042V135.756C218.814 135.598 218.862 135.472 218.959 135.378C219.056 135.283 219.185 135.236 219.347 135.236H219.758C219.92 135.236 220.049 135.283 220.146 135.378C220.243 135.472 220.291 135.598 220.291 135.756V145.106L227.75 135.59C227.927 135.354 228.137 135.236 228.379 135.236H228.839Z" fill="#E30613"/>
<path d="M242.805 146.876C242.886 146.971 242.926 147.073 242.926 147.183C242.926 147.404 242.773 147.514 242.466 147.514H241.837C241.594 147.514 241.385 147.404 241.207 147.183L237.381 141.965H234.717V146.994C234.717 147.152 234.669 147.278 234.572 147.372C234.475 147.467 234.346 147.514 234.184 147.514H233.772C233.611 147.514 233.482 147.467 233.385 147.372C233.288 147.278 233.24 147.152 233.24 146.994V135.756C233.24 135.598 233.288 135.472 233.385 135.378C233.482 135.283 233.611 135.236 233.772 135.236H234.184C234.346 135.236 234.475 135.283 234.572 135.378C234.669 135.472 234.717 135.598 234.717 135.756V140.549H237.308L240.868 135.59C241.046 135.354 241.255 135.236 241.498 135.236H241.982C242.127 135.236 242.24 135.268 242.321 135.331C242.418 135.378 242.466 135.456 242.466 135.567C242.466 135.63 242.426 135.724 242.345 135.85L238.592 141.092L242.805 146.876Z" fill="#E30613"/>
<path d="M255.516 135.236C255.645 135.236 255.758 135.283 255.855 135.378C255.952 135.472 256 135.575 256 135.685V146.994C256 147.152 255.952 147.278 255.855 147.372C255.758 147.467 255.629 147.514 255.467 147.514H255.056C254.894 147.514 254.765 147.467 254.668 147.372C254.571 147.278 254.523 147.152 254.523 146.994V137.644L247.064 147.16C246.886 147.396 246.677 147.514 246.434 147.514H245.974C245.845 147.514 245.732 147.467 245.635 147.372C245.538 147.278 245.49 147.168 245.49 147.042V135.756C245.49 135.598 245.538 135.472 245.635 135.378C245.732 135.283 245.861 135.236 246.023 135.236H246.434C246.596 135.236 246.725 135.283 246.822 135.378C246.919 135.472 246.967 135.598 246.967 135.756V145.106L254.426 135.59C254.604 135.354 254.813 135.236 255.056 135.236H255.516Z" fill="#E30613"/>
<defs>
<filter id="filter0_f_258_4" x="0" y="69" width="290" height="98" filterUnits="userSpaceOnUse" color-interpolation-filters="sRGB">
<feFlood flood-opacity="0" result="BackgroundImageFix"/>
<feBlend mode="normal" in="SourceGraphic" in2="BackgroundImageFix" result="shape"/>
<feGaussianBlur stdDeviation="1" result="effect1_foregroundBlur_258_4"/>
</filter>
<filter id="filter1_d_258_4" x="101" y="0" width="98" height="98" filterUnits="userSpaceOnUse" color-interpolation-filters="sRGB">
<feFlood flood-opacity="0" result="BackgroundImageFix"/>
<feColorMatrix in="SourceAlpha" type="matrix" values="0 0 0 0 0 0 0 0 0 0 0 0 0 0 0 0 0 0 127 0" result="hardAlpha"/>
<feOffset dx="5" dy="5"/>
<feGaussianBlur stdDeviation="10"/>
<feComposite in2="hardAlpha" operator="out"/>
<feColorMatrix type="matrix" values="0 0 0 0 0.890196 0 0 0 0 0.0235294 0 0 0 0 0.0745098 0 0 0 0.25 0"/>
<feBlend mode="normal" in2="BackgroundImageFix" result="effect1_dropShadow_258_4"/>
<feBlend mode="normal" in="SourceGraphic" in2="effect1_dropShadow_258_4" result="shape"/>
</filter>
<filter id="filter2_d_258_4" x="101" y="0" width="98" height="98" filterUnits="userSpaceOnUse" color-interpolation-filters="sRGB">
<feFlood flood-opacity="0" result="BackgroundImageFix"/>
<feColorMatrix in="SourceAlpha" type="matrix" values="0 0 0 0 0 0 0 0 0 0 0 0 0 0 0 0 0 0 127 0" result="hardAlpha"/>
<feOffset dx="5" dy="5"/>
<feGaussianBlur stdDeviation="10"/>
<feComposite in2="hardAlpha" operator="out"/>
<feColorMatrix type="matrix" values="0 0 0 0 0.890196 0 0 0 0 0.0235294 0 0 0 0 0.0745098 0 0 0 0.25 0"/>
<feBlend mode="normal" in2="BackgroundImageFix" result="effect1_dropShadow_258_4"/>
<feBlend mode="normal" in="SourceGraphic" in2="effect1_dropShadow_258_4" result="shape"/>
</filter>
</defs>
</svg>
