<svg width="61" height="15" viewBox="0 0 61 15" fill="none" xmlns="http://www.w3.org/2000/svg">
<path d="M7.12228 12.0932C7.12228 12.2483 7.01449 12.3745 6.88041 12.3745C6.74634 12.3745 6.63855 12.2483 6.63855 12.0932V10.4001C6.63855 10.245 6.74634 10.1189 6.88041 10.1189C7.01449 10.1189 7.12228 10.245 7.12228 10.4001V12.0932Z" fill="black"/>
<path d="M6.36788 11.8093C6.36788 11.9434 6.2601 12.0511 6.12602 12.0511C5.99194 12.0511 5.88416 11.9434 5.88416 11.8093V10.734C5.88416 10.6 5.99194 10.4922 6.12602 10.4922C6.2601 10.4922 6.36788 10.6 6.36788 10.734V11.8093Z" fill="black"/>
<path d="M7.81881 12.0695C7.81881 12.2378 7.71102 12.3745 7.57695 12.3745C7.44287 12.3745 7.33508 12.2378 7.33508 12.0695V10.2372C7.33508 10.0689 7.44287 9.93221 7.57695 9.93221C7.71102 9.93221 7.81881 10.0689 7.81881 10.2372V12.0695Z" fill="black"/>
<path d="M8.54452 12.1747C8.54452 12.3745 8.43673 12.5349 8.30266 12.5349C8.16858 12.5349 8.06079 12.3745 8.06079 12.1747V10.0085C8.06079 9.80865 8.16858 9.64828 8.30266 9.64828C8.43673 9.64828 8.54452 9.80865 8.54452 10.0085V12.1747Z" fill="black"/>
<path d="M9.29647 12.1484C9.29647 12.3614 9.18869 12.5349 9.05461 12.5349C8.92053 12.5349 8.81274 12.3614 8.81274 12.1484V9.8323C8.81274 9.61935 8.92053 9.44584 9.05461 9.44584C9.18869 9.44584 9.29647 9.61935 9.29647 9.8323V12.1484Z" fill="black"/>
<path d="M9.99581 12.314C9.99581 12.5401 9.88803 12.7242 9.75395 12.7242C9.61987 12.7242 9.51208 12.5401 9.51208 12.314V9.85596C9.51208 9.62987 9.61987 9.44584 9.75395 9.44584C9.88803 9.44584 9.99581 9.62987 9.99581 9.85596V12.314Z" fill="black"/>
<path d="M10.7476 12.2904C10.7476 12.5296 10.6399 12.7242 10.5058 12.7242C10.3717 12.7242 10.2639 12.5296 10.2639 12.2904V9.69035C10.2639 9.45111 10.3717 9.25657 10.5058 9.25657C10.6399 9.25657 10.7476 9.45111 10.7476 9.69035V12.2904Z" fill="black"/>
<path d="M11.447 12.2825C11.447 12.5296 11.3392 12.7294 11.2051 12.7294C11.071 12.7294 10.9633 12.5296 10.9633 12.2825V9.59831C10.9633 9.35119 11.071 9.15139 11.2051 9.15139C11.3392 9.15139 11.447 9.35119 11.447 9.59831V12.2825Z" fill="black"/>
<path d="M12.1724 12.2825C12.1724 12.5296 12.0647 12.7294 11.9306 12.7294C11.7965 12.7294 11.6887 12.5296 11.6887 12.2825V9.59831C11.6887 9.35119 11.7965 9.15139 11.9306 9.15139C12.0647 9.15139 12.1724 9.35119 12.1724 9.59831V12.2825Z" fill="black"/>
<path d="M12.9242 12.2825C12.9242 12.5296 12.8164 12.7294 12.6823 12.7294C12.5482 12.7294 12.4404 12.5296 12.4404 12.2825V9.59834C12.4404 9.35121 12.5482 9.15141 12.6823 9.15141C12.8164 9.15141 12.9242 9.35121 12.9242 9.59834V12.2825Z" fill="black"/>
<path d="M13.6237 12.2956C13.6237 12.5349 13.516 12.7294 13.3819 12.7294C13.2478 12.7294 13.14 12.5349 13.14 12.2956V9.69035C13.14 9.45111 13.2478 9.25657 13.3819 9.25657C13.516 9.25657 13.6237 9.45111 13.6237 9.69035V12.2956Z" fill="black"/>
<path d="M5.46077 11.3571C5.46866 11.4912 5.36613 11.6042 5.23468 11.6121L0.255435 11.9013C0.121358 11.9092 0.00831318 11.8067 0.000426299 11.6752C-0.00746058 11.5411 0.095069 11.4281 0.226517 11.4202L5.20577 11.131C5.33721 11.1205 5.45289 11.223 5.46077 11.3571Z" fill="black"/>
<path d="M15.6478 14.9745C15.0038 14.9745 14.4806 14.4514 14.4806 13.8073V7.89737C14.4806 7.25328 15.0038 6.73012 15.6478 6.73012C16.2919 6.73012 16.8151 7.25328 16.8151 7.89737V13.8073C16.8151 14.4514 16.2919 14.9745 15.6478 14.9745Z" fill="black"/>
<path d="M14.2861 12.2956C14.2861 12.5349 14.1783 12.7294 14.0442 12.7294C13.9102 12.7294 13.8024 12.5349 13.8024 12.2956V9.69035C13.8024 9.45111 13.9102 9.25657 14.0442 9.25657C14.1783 9.25657 14.2861 9.45111 14.2861 9.69035V12.2956Z" fill="black"/>
<path d="M30.7673 12.3955H18.2245C17.4279 12.3955 17.0231 11.8566 17.0231 10.7945C17.0231 9.73239 17.4279 9.19345 18.2245 9.19345H30.7673C31.5638 9.19345 31.9687 9.73239 31.9687 10.7945C31.9687 11.8566 31.5638 12.3955 30.7673 12.3955Z" fill="white"/>
<path d="M30.7671 12.4876H18.2243C17.6354 12.4876 16.9335 12.1931 16.9335 10.7972C16.9335 9.39855 17.6354 9.10674 18.2243 9.10674H30.7671C31.3559 9.10674 32.0579 9.40118 32.0579 10.7972C32.0579 12.1931 31.3559 12.4876 30.7671 12.4876ZM18.2243 9.2855C17.4777 9.2855 17.1149 9.77975 17.1149 10.7945C17.1149 11.8093 17.4777 12.3036 18.2243 12.3036H30.7671C31.5137 12.3036 31.8765 11.8093 31.8765 10.7945C31.8765 9.77975 31.5137 9.2855 30.7671 9.2855H18.2243Z" fill="white"/>
<path d="M43.6542 12.3955H33.3145C32.2839 12.3955 32.2839 11.1915 32.2839 10.7945C32.2839 10.3975 32.2839 9.19346 33.3145 9.19346H34.1321L34.7762 8.76232H37.8652L38.3305 7.36371L38.0282 7.1271L38.3779 5.81262L39.1534 6.07815L39.9815 3.93818L40.5862 3.86456L42.2083 0.134071L43.3545 0.922759L42.224 4.22736L43.4412 5.81262L44.2536 6.27532L43.9407 7.73702L42.4028 7.88161L41.8481 8.14714L41.9979 8.53622L41.9164 9.18821H43.6463C44.6768 9.18821 44.6768 10.3923 44.6768 10.7892C44.6847 11.1915 44.6847 12.3955 43.6542 12.3955Z" fill="white"/>
<path d="M43.6543 12.4876H33.3146C32.5706 12.4876 32.192 11.9197 32.192 10.7971C32.192 9.67457 32.5706 9.10671 33.3146 9.10671H34.1033L34.7474 8.67556H37.7996L38.2255 7.39789L37.9258 7.16391L38.3175 5.69695L39.1035 5.96511L39.9212 3.85668L40.5284 3.78307L42.1742 0L43.4702 0.888587L42.3345 4.21422L43.5123 5.7469L44.3667 6.23326L44.0276 7.82378L42.4397 7.97363L41.9744 8.19447L42.1006 8.52571L42.0296 9.09883H43.6569C44.4009 9.09883 44.7795 9.66668 44.7795 10.7892C44.7795 11.9118 44.3983 12.4876 43.6543 12.4876ZM33.3146 9.28548C32.4707 9.28548 32.3734 10.1478 32.3734 10.7945C32.3734 11.4412 32.4707 12.3035 33.3146 12.3035H43.6543C44.4982 12.3035 44.5954 11.4412 44.5954 10.7945C44.5954 10.1478 44.4982 9.28548 43.6543 9.28548H41.8193L41.9113 8.552L41.7404 8.10508L42.3845 7.79749L43.8725 7.65816L44.1564 6.3279L43.3861 5.88887L42.1269 4.25103L43.2494 0.964828L42.2504 0.278669L40.652 3.95395L40.05 4.02757L39.2087 6.19646L38.441 5.93619L38.1308 7.09819L38.4358 7.33742L37.9284 8.85959H34.7999L34.1558 9.29074H33.3146V9.28548Z" fill="white"/>
<path d="M52.0775 11.7304C52.0827 11.8855 52.1932 12.0091 52.3272 12.0064C52.4613 12.0012 52.5665 11.8724 52.5612 11.7173L52.5113 10.0242C52.506 9.8691 52.3956 9.74554 52.2615 9.74817C52.1274 9.75343 52.0223 9.88225 52.0275 10.0374L52.0775 11.7304Z" fill="black"/>
<path d="M52.8214 11.4281C52.8267 11.5622 52.9371 11.6673 53.0712 11.6621C53.2052 11.6568 53.3104 11.5464 53.3051 11.4123L53.2736 10.3371C53.2683 10.203 53.1579 10.0978 53.0238 10.1031C52.8898 10.1084 52.7846 10.2188 52.7899 10.3528L52.8214 11.4281Z" fill="black"/>
<path d="M51.3783 11.7278C51.3835 11.8961 51.4966 12.0301 51.628 12.0249C51.7621 12.0196 51.8646 11.8803 51.8594 11.712L51.8042 9.87964C51.7989 9.71139 51.6859 9.57731 51.5544 9.58257C51.4203 9.58783 51.3178 9.72716 51.3231 9.89541L51.3783 11.7278Z" fill="black"/>
<path d="M50.6552 11.8566C50.6605 12.0564 50.7735 12.2141 50.9076 12.2115C51.0417 12.2062 51.1442 12.0432 51.1389 11.8434L51.0758 9.67719C51.0706 9.47739 50.9575 9.31965 50.8235 9.32228C50.6894 9.32753 50.5869 9.49053 50.5921 9.69033L50.6552 11.8566Z" fill="black"/>
<path d="M49.9033 11.854C49.9085 12.0669 50.0242 12.2378 50.1556 12.2325C50.2897 12.2273 50.3922 12.0538 50.387 11.8382L50.3186 9.52209C50.3134 9.30914 50.1977 9.13826 50.0663 9.14352C49.9322 9.14878 49.8297 9.32229 49.8349 9.53786L49.9033 11.854Z" fill="black"/>
<path d="M49.2093 12.038C49.2172 12.2641 49.3302 12.4455 49.4643 12.4402C49.5984 12.435 49.7009 12.2509 49.693 12.0222L49.6194 9.56415C49.6115 9.33806 49.4985 9.15667 49.3644 9.16192C49.2303 9.16718 49.1278 9.35121 49.1357 9.57993L49.2093 12.038Z" fill="black"/>
<path d="M48.4574 12.038C48.4653 12.2773 48.5783 12.4665 48.7124 12.4639C48.8465 12.4586 48.949 12.2641 48.9411 12.0249L48.8649 9.42746C48.857 9.18822 48.744 8.99894 48.6099 9.00157C48.4758 9.00683 48.3733 9.20137 48.3812 9.4406L48.4574 12.038Z" fill="black"/>
<path d="M47.7583 12.0512C47.7661 12.2983 47.8792 12.4955 48.0133 12.4902C48.1473 12.485 48.2499 12.2825 48.242 12.0354L48.1631 9.35123C48.1552 9.10411 48.0422 8.90694 47.9081 8.9122C47.774 8.91745 47.6715 9.11989 47.6794 9.36701L47.7583 12.0512Z" fill="black"/>
<path d="M47.0352 12.0722C47.0431 12.3193 47.1562 12.5165 47.2902 12.5112C47.4243 12.5059 47.5268 12.3035 47.519 12.0564L47.4401 9.37223C47.4322 9.12511 47.3192 8.92794 47.1851 8.93319C47.051 8.93845 46.9485 9.14088 46.9564 9.388L47.0352 12.0722Z" fill="black"/>
<path d="M46.2832 12.0932C46.291 12.3403 46.4041 12.5375 46.5382 12.5322C46.6722 12.527 46.7748 12.3245 46.7669 12.0774L46.688 9.39326C46.6801 9.14613 46.5671 8.94896 46.433 8.95422C46.2989 8.95948 46.1964 9.16191 46.2043 9.40903L46.2832 12.0932Z" fill="black"/>
<path d="M45.5839 12.1274C45.5918 12.3666 45.7048 12.5586 45.8389 12.5533C45.973 12.548 46.0755 12.3509 46.0676 12.1116L45.9914 9.50896C45.9835 9.26972 45.8704 9.07781 45.7363 9.08307C45.6023 9.08833 45.4997 9.2855 45.5076 9.52473L45.5839 12.1274Z" fill="black"/>
<path d="M44.9215 12.1484C44.9294 12.3877 45.0424 12.5796 45.1765 12.5743C45.3106 12.5691 45.4131 12.3719 45.4052 12.1327L45.329 9.52998C45.3211 9.29075 45.2081 9.09884 45.074 9.10409C44.9399 9.10935 44.8374 9.30652 44.8453 9.54576L44.9215 12.1484Z" fill="black"/>
<path d="M60.4112 10.4449C60.4164 10.5842 60.3086 10.7051 60.1667 10.7104L53.9834 10.9733C53.844 10.9785 53.7231 10.8708 53.7178 10.7288C53.7126 10.5895 53.8204 10.4685 53.9623 10.4633L60.1456 10.2004C60.2876 10.1951 60.4059 10.3055 60.4112 10.4449Z" fill="black"/>
<path d="M18.7005 9.47209C18.6453 8.65186 18.64 7.82637 18.6058 7.00613C18.5638 6.06759 19.8283 7.11918 19.9177 7.21382C20.1359 7.44254 20.3199 7.7028 20.5276 7.94204C20.8247 8.28643 21.3137 8.34164 21.7395 8.31535C22.055 8.29695 22.3863 8.14184 22.6833 8.04194C23.3905 7.80533 24.145 8.0288 24.868 8.03931C25.8723 8.05246 26.8529 7.76064 27.865 7.78167C28.9482 7.80533 30.005 7.71332 31.0776 7.56347C33.5777 7.21382 35.8413 6.99561 38.3125 7.666C38.5807 7.73961 38.6937 7.32423 38.4255 7.25062C36.0437 6.6039 33.7697 6.73009 31.3536 7.09026C29.9209 7.3032 28.5485 7.29269 27.1131 7.36104C26.4901 7.38996 25.867 7.52403 25.2466 7.58713C24.613 7.65285 23.9952 7.52929 23.3642 7.49249C22.8831 7.46357 22.4047 7.6844 21.9604 7.829C21.2348 8.06297 20.8825 7.71332 20.496 7.22959C20.1359 6.78004 19.7284 6.33575 19.129 6.25162C18.7977 6.2043 18.3035 6.4041 18.2089 6.75375C18.1379 7.01402 18.201 7.3032 18.222 7.5661C18.2746 8.19705 18.2325 8.84114 18.2746 9.47472C18.2903 9.74813 18.7189 9.74814 18.7005 9.47209Z" fill="white"/>
<path d="M18.5006 9.76917C18.3508 9.76917 18.1931 9.66927 18.1799 9.47736C18.1589 9.1724 18.1589 8.86218 18.1562 8.56248C18.1536 8.23649 18.1536 7.89735 18.1273 7.57136C18.1221 7.51353 18.1168 7.45306 18.1089 7.39259C18.0826 7.17439 18.059 6.94567 18.1168 6.72747C18.2167 6.3673 18.6558 6.15173 19.0264 6.15173C19.0659 6.15173 19.1027 6.15435 19.1395 6.15961C19.7757 6.249 20.2095 6.72747 20.5644 7.17176C20.8457 7.52141 21.1112 7.81323 21.5318 7.81323C21.6554 7.81323 21.7842 7.78957 21.9314 7.74225C22.0234 7.71333 22.1155 7.67915 22.2101 7.6476C22.5834 7.51616 22.9725 7.37945 23.3721 7.40311C23.5693 7.41626 23.7664 7.43466 23.9584 7.45569C24.2554 7.48724 24.5604 7.51879 24.8601 7.51879C24.9942 7.51879 25.1177 7.51353 25.2387 7.50038C25.4832 7.47409 25.7329 7.43729 25.9748 7.40311C26.3455 7.3479 26.7293 7.2927 27.1105 7.27429C27.4838 7.25589 27.8597 7.24274 28.2225 7.23223C29.2846 7.19542 30.2889 7.16387 31.3431 7.00614C32.7075 6.80371 33.8196 6.70907 34.8423 6.70907C36.1278 6.70907 37.3082 6.85892 38.4544 7.16913C38.6043 7.20857 38.6911 7.34264 38.67 7.49775C38.6516 7.63446 38.5465 7.77117 38.3756 7.77117C38.3467 7.77117 38.3204 7.76854 38.2914 7.76065C37.2188 7.46883 36.112 7.3295 34.9027 7.3295C33.7065 7.3295 32.513 7.46095 31.0907 7.66075C29.9971 7.81323 29.0822 7.88421 28.2094 7.88421C28.0937 7.88421 27.978 7.88421 27.8624 7.88158C27.355 7.87107 26.845 7.94205 26.3507 8.00777C25.888 8.07087 25.4095 8.13659 24.9311 8.13659H24.868C24.634 8.13396 24.3948 8.10767 24.1634 8.08401C23.9189 8.05772 23.6692 8.03143 23.4247 8.03143C23.1539 8.03143 22.9199 8.06561 22.7122 8.13659C22.6413 8.16025 22.5676 8.18654 22.494 8.21546C22.2495 8.30484 21.9998 8.39949 21.7474 8.41526C21.6869 8.41789 21.6238 8.42052 21.5608 8.42052C21.0665 8.42052 20.6958 8.28381 20.4618 8.0104C20.3777 7.91313 20.2989 7.81323 20.2226 7.71596C20.1069 7.56874 19.986 7.41888 19.8572 7.28481C19.7836 7.20857 19.1763 6.71958 18.8661 6.71958C18.8161 6.71958 18.7819 6.73273 18.7583 6.75639C18.7162 6.79845 18.6978 6.88783 18.7031 7.00877C18.7162 7.32687 18.7267 7.65023 18.7346 7.96571C18.7478 8.45995 18.7635 8.9726 18.7977 9.47473C18.803 9.55886 18.7793 9.63247 18.7267 9.68768C18.6663 9.73763 18.5874 9.76917 18.5006 9.76917ZM19.0264 6.33312C18.732 6.33312 18.3666 6.51189 18.293 6.77479C18.243 6.95882 18.2667 7.16913 18.2903 7.37156C18.2982 7.43466 18.3035 7.49512 18.3087 7.55559C18.335 7.88947 18.3376 8.23123 18.3403 8.55985C18.3429 8.85693 18.3429 9.16451 18.3639 9.46421C18.3718 9.56148 18.4533 9.58515 18.5033 9.58515C18.5401 9.58515 18.5716 9.572 18.59 9.5536C18.6058 9.5352 18.6137 9.50891 18.6111 9.47736C18.5769 8.9726 18.5611 8.45732 18.548 7.96045C18.5401 7.6476 18.5296 7.32424 18.5164 7.00614C18.5085 6.82737 18.5427 6.70118 18.6216 6.61968C18.682 6.55659 18.7609 6.52504 18.8608 6.52504C19.2709 6.52504 19.9229 7.08238 19.9834 7.14547C20.1201 7.28481 20.241 7.43992 20.3593 7.58977C20.4356 7.68704 20.5144 7.78431 20.5959 7.87895C20.7931 8.10767 21.1191 8.22597 21.5581 8.22597C21.616 8.22597 21.6764 8.22335 21.7343 8.22072C21.9604 8.20757 22.1996 8.11819 22.4309 8.03406C22.5072 8.00514 22.5834 7.97885 22.6544 7.95256C22.8805 7.87632 23.1329 7.83952 23.4247 7.83952C23.6771 7.83952 23.9321 7.86581 24.1818 7.8921C24.4105 7.91576 24.6445 7.94205 24.8706 7.94468H24.9311C25.3964 7.94468 25.8696 7.87895 26.3271 7.81586C26.8292 7.7475 27.3471 7.67389 27.8676 7.68704C27.9807 7.68967 28.0963 7.68967 28.2094 7.68967C29.0717 7.68967 29.9787 7.61869 31.0644 7.46883C32.4946 7.26903 33.696 7.13759 34.9001 7.13759C36.1252 7.13759 37.2478 7.28218 38.3361 7.57662C38.4229 7.60028 38.4781 7.53193 38.486 7.46621C38.4912 7.43466 38.4912 7.36105 38.4019 7.33739C37.274 7.03243 36.1068 6.88258 34.837 6.88258C33.8222 6.88258 32.7207 6.97722 31.3641 7.17965C30.2994 7.33739 29.2899 7.37156 28.2225 7.40837C27.8597 7.42151 27.4864 7.43203 27.1131 7.45043C26.7424 7.46883 26.3639 7.52404 25.9958 7.57925C25.7513 7.61606 25.4989 7.65286 25.2518 7.67915C25.1256 7.69229 24.9942 7.69755 24.8548 7.69755C24.5446 7.69755 24.2344 7.66601 23.9347 7.63446C23.7454 7.61606 23.5482 7.59502 23.3563 7.58188C22.9935 7.56085 22.6229 7.68967 22.2679 7.81586C22.1733 7.85003 22.0787 7.88421 21.9866 7.91313C21.821 7.96571 21.6738 7.992 21.5318 7.992C21.0323 7.992 20.7221 7.65812 20.4224 7.28481C20.0754 6.85103 19.6863 6.41988 19.1158 6.34101C19.0869 6.33575 19.058 6.33312 19.0264 6.33312Z" fill="white"/>
<path d="M28.4798 9.47211C28.6139 8.39424 28.4404 7.39786 29.6944 6.94042C30.6618 6.58814 31.8449 6.81686 32.857 6.75113C34.7394 6.62757 36.4482 6.18854 38.3358 6.66964C38.6039 6.73799 38.7196 6.32261 38.4488 6.25426C36.0828 5.6496 33.7877 6.37782 31.4164 6.34102C30.6093 6.32787 29.1739 6.30947 28.606 7.02981C28.0434 7.74225 28.1564 8.60981 28.0487 9.46948C28.0171 9.74815 28.4456 9.74289 28.4798 9.47211Z" fill="white"/>
<path d="M28.238 9.76921C28.1513 9.76921 28.0698 9.73504 28.0198 9.6772C27.9857 9.63777 27.9462 9.56941 27.9594 9.46163C27.9857 9.25657 27.9988 9.04625 28.0093 8.84382C28.0488 8.20235 28.0882 7.54248 28.5325 6.97726C29.1266 6.22275 30.5962 6.24115 31.4165 6.25167C32.2788 6.26481 33.1437 6.17543 33.9823 6.08867C34.7631 6.00717 35.5676 5.92567 36.3642 5.92567C37.1397 5.92567 37.8285 6.00454 38.47 6.17017C38.6198 6.2096 38.7092 6.33842 38.6882 6.49353C38.6698 6.63287 38.562 6.7722 38.3911 6.7722C38.3648 6.7722 38.3385 6.76957 38.3096 6.76168C37.7365 6.61446 37.1318 6.54348 36.4641 6.54348C35.749 6.54348 35.0549 6.62235 34.3215 6.70385C33.8456 6.75643 33.3566 6.81163 32.8571 6.84581C32.7231 6.8537 32.5758 6.85896 32.4102 6.85896C32.2051 6.85896 31.9948 6.8537 31.7898 6.84581C31.5821 6.84055 31.3665 6.83267 31.1562 6.83267C30.7408 6.83267 30.2019 6.85633 29.7208 7.02984C28.7349 7.38738 28.6823 8.07353 28.614 8.94372C28.6008 9.11986 28.5877 9.30126 28.564 9.48791C28.5483 9.66931 28.3853 9.76921 28.238 9.76921ZM31.0589 6.43043C30.2597 6.43043 29.145 6.49879 28.6797 7.08767C28.2696 7.60558 28.2328 8.21024 28.1934 8.85171C28.1802 9.05677 28.1671 9.26971 28.1408 9.48266C28.1381 9.5142 28.1434 9.53787 28.1566 9.55627C28.2039 9.61148 28.3748 9.59307 28.3905 9.46163C28.4142 9.28023 28.4273 9.10146 28.4405 8.92795C28.5062 8.06828 28.5693 7.25593 29.6656 6.85633C30.173 6.6723 30.7329 6.64864 31.1614 6.64864C31.3744 6.64864 31.5926 6.6539 31.8003 6.66178C32.0027 6.66704 32.2157 6.67493 32.4155 6.67493C32.5785 6.67493 32.7204 6.66967 32.8492 6.66178C33.3435 6.63024 33.8325 6.57503 34.3057 6.52245C35.0444 6.43832 35.7437 6.36208 36.4693 6.36208C37.1528 6.36208 37.7707 6.43569 38.3595 6.58554C38.4463 6.60658 38.5041 6.54085 38.512 6.4725C38.5146 6.44358 38.5146 6.36997 38.4279 6.34894C37.7996 6.18857 37.1266 6.11233 36.3668 6.11233C35.5781 6.11233 34.7789 6.19646 34.0034 6.27533C33.1595 6.36208 32.2893 6.45409 31.4165 6.44095C31.3087 6.43306 31.1877 6.43043 31.0589 6.43043Z" fill="white"/>
</svg>
