<svg width="89" height="22" viewBox="0 0 89 22" fill="none" xmlns="http://www.w3.org/2000/svg">
<path d="M10.4033 17.6643C10.4033 17.8908 10.2459 18.0752 10.0501 18.0752C9.85422 18.0752 9.69678 17.8908 9.69678 17.6643V15.1913C9.69678 14.9647 9.85422 14.7804 10.0501 14.7804C10.2459 14.7804 10.4033 14.9647 10.4033 15.1913V17.6643Z" fill="#E30613"/>
<path d="M9.3013 17.2496C9.3013 17.4454 9.14386 17.6028 8.94801 17.6028C8.75217 17.6028 8.59473 17.4454 8.59473 17.2496V15.679C8.59473 15.4831 8.75217 15.3257 8.94801 15.3257C9.14386 15.3257 9.3013 15.4831 9.3013 15.679V17.2496Z" fill="#E30613"/>
<path d="M11.4209 17.6297C11.4209 17.8755 11.2635 18.0752 11.0676 18.0752C10.8718 18.0752 10.7144 17.8755 10.7144 17.6297V14.9532C10.7144 14.7074 10.8718 14.5078 11.0676 14.5078C11.2635 14.5078 11.4209 14.7074 11.4209 14.9532V17.6297Z" fill="#E30613"/>
<path d="M12.4807 17.7833C12.4807 18.0752 12.3233 18.3094 12.1275 18.3094C11.9316 18.3094 11.7742 18.0752 11.7742 17.7833V14.6191C11.7742 14.3273 11.9316 14.093 12.1275 14.093C12.3233 14.093 12.4807 14.3273 12.4807 14.6191V17.7833Z" fill="#E30613"/>
<path d="M13.5791 17.7449C13.5791 18.056 13.4217 18.3094 13.2258 18.3094C13.03 18.3094 12.8726 18.056 12.8726 17.7449V14.3618C12.8726 14.0508 13.03 13.7973 13.2258 13.7973C13.4217 13.7973 13.5791 14.0508 13.5791 14.3618V17.7449Z" fill="#E30613"/>
<path d="M14.6006 17.9869C14.6006 18.3171 14.4432 18.5859 14.2473 18.5859C14.0515 18.5859 13.894 18.3171 13.894 17.9869V14.3964C13.894 14.0661 14.0515 13.7973 14.2473 13.7973C14.4432 13.7973 14.6006 14.0661 14.6006 14.3964V17.9869Z" fill="#E30613"/>
<path d="M15.6988 17.9523C15.6988 18.3018 15.5413 18.5859 15.3455 18.5859C15.1496 18.5859 14.9922 18.3018 14.9922 17.9523V14.1545C14.9922 13.805 15.1496 13.5209 15.3455 13.5209C15.5413 13.5209 15.6988 13.805 15.6988 14.1545V17.9523Z" fill="#E30613"/>
<path d="M16.7202 17.9408C16.7202 18.3017 16.5628 18.5936 16.367 18.5936C16.1711 18.5936 16.0137 18.3017 16.0137 17.9408V14.0201C16.0137 13.6591 16.1711 13.3673 16.367 13.3673C16.5628 13.3673 16.7202 13.6591 16.7202 14.0201V17.9408Z" fill="#E30613"/>
<path d="M17.7803 17.9408C17.7803 18.3017 17.6229 18.5936 17.427 18.5936C17.2312 18.5936 17.0737 18.3017 17.0737 17.9408V14.0201C17.0737 13.6591 17.2312 13.3673 17.427 13.3673C17.6229 13.3673 17.7803 13.6591 17.7803 14.0201V17.9408Z" fill="#E30613"/>
<path d="M18.878 17.9408C18.878 18.3018 18.7205 18.5936 18.5247 18.5936C18.3288 18.5936 18.1714 18.3018 18.1714 17.9408V14.0201C18.1714 13.6591 18.3288 13.3673 18.5247 13.3673C18.7205 13.3673 18.878 13.6591 18.878 14.0201V17.9408Z" fill="#E30613"/>
<path d="M19.8999 17.96C19.8999 18.3094 19.7425 18.5936 19.5466 18.5936C19.3508 18.5936 19.1934 18.3094 19.1934 17.96V14.1545C19.1934 13.805 19.3508 13.5209 19.5466 13.5209C19.7425 13.5209 19.8999 13.805 19.8999 14.1545V17.96Z" fill="#E30613"/>
<path d="M7.97643 16.5891C7.98795 16.7849 7.83819 16.95 7.64619 16.9616L0.373109 17.384C0.177265 17.3955 0.0121429 17.2457 0.000622685 17.0537C-0.0108975 16.8579 0.138865 16.6927 0.330868 16.6812L7.60395 16.2588C7.79595 16.2435 7.96491 16.3932 7.97643 16.5891Z" fill="#E30613"/>
<path d="M22.8568 21.873C21.916 21.873 21.1519 21.1088 21.1519 20.168V11.5355C21.1519 10.5947 21.916 9.83055 22.8568 9.83055C23.7977 9.83055 24.5618 10.5947 24.5618 11.5355V20.168C24.5618 21.1088 23.7977 21.873 22.8568 21.873Z" fill="#E30613"/>
<path d="M20.8677 17.96C20.8677 18.3094 20.7103 18.5936 20.5144 18.5936C20.3186 18.5936 20.1611 18.3094 20.1611 17.96V14.1545C20.1611 13.805 20.3186 13.5209 20.5144 13.5209C20.7103 13.5209 20.8677 13.805 20.8677 14.1545V17.96Z" fill="#E30613"/>
<path d="M44.9411 18.1059H26.6201C25.4566 18.1059 24.8652 17.3187 24.8652 15.7673C24.8652 14.2159 25.4566 13.4287 26.6201 13.4287H44.9411C46.1046 13.4287 46.696 14.2159 46.696 15.7673C46.696 17.3187 46.1046 18.1059 44.9411 18.1059Z" fill="black"/>
<path d="M44.9408 18.2403H26.6198C25.7597 18.2403 24.7344 17.8102 24.7344 15.7711C24.7344 13.7282 25.7597 13.302 26.6198 13.302H44.9408C45.801 13.302 46.8263 13.7321 46.8263 15.7711C46.8263 17.8102 45.801 18.2403 44.9408 18.2403ZM26.6198 13.5631C25.5293 13.5631 24.9993 14.285 24.9993 15.7673C24.9993 17.2496 25.5293 17.9715 26.6198 17.9715H44.9408C46.0314 17.9715 46.5613 17.2496 46.5613 15.7673C46.5613 14.285 46.0314 13.5631 44.9408 13.5631H26.6198Z" fill="black"/>
<path d="M63.765 18.1059H48.662C47.1567 18.1059 47.1567 16.3472 47.1567 15.7673C47.1567 15.1875 47.1567 13.4287 48.662 13.4287H49.8563L50.7971 12.7989H55.3092L55.9889 10.756L55.5473 10.4104L56.058 8.49038L57.1908 8.87823L58.4004 5.75242L59.2837 5.6449L61.653 0.195847L63.3272 1.34787L61.676 6.17482L63.454 8.49038L64.6405 9.16623L64.1836 11.3013L61.9371 11.5125L61.1269 11.9004L61.3458 12.4687L61.2267 13.421H63.7535C65.2588 13.421 65.2588 15.1798 65.2588 15.7596C65.2703 16.3472 65.2703 18.1059 63.765 18.1059Z" fill="black"/>
<path d="M63.7651 18.2403H48.6622C47.5754 18.2403 47.0225 17.4108 47.0225 15.7711C47.0225 14.1314 47.5754 13.302 48.6622 13.302H49.8142L50.755 12.6722H55.2133L55.8354 10.8059L55.3976 10.4642L55.9698 8.32142L57.118 8.7131L58.3122 5.63337L59.1993 5.52585L61.6032 0L63.4963 1.29794L61.8374 6.15562L63.5578 8.39438L64.8058 9.10479L64.3104 11.428L61.991 11.6469L61.3113 11.9695L61.4957 12.4533L61.392 13.2905H63.769C64.8557 13.2905 65.4087 14.1199 65.4087 15.7596C65.4087 17.3993 64.8519 18.2403 63.7651 18.2403ZM48.6622 13.5631C47.4295 13.5631 47.2874 14.8226 47.2874 15.7673C47.2874 16.712 47.4295 17.9715 48.6622 17.9715H63.7651C64.9978 17.9715 65.1399 16.712 65.1399 15.7673C65.1399 14.8226 64.9978 13.5631 63.7651 13.5631H61.0848L61.2192 12.4917L60.9696 11.8389L61.9104 11.3896L64.0839 11.1861L64.4986 9.24303L63.3734 8.60174L61.5341 6.20938L63.1738 1.4093L61.7145 0.407046L59.3798 5.77545L58.5004 5.88298L57.2716 9.05103L56.1503 8.67086L55.6972 10.3682L56.1426 10.7176L55.4015 12.941H50.8318L49.891 13.5708H48.6622V13.5631Z" fill="black"/>
<path d="M76.0684 17.1344C76.076 17.3609 76.2373 17.5414 76.4332 17.5376C76.629 17.5299 76.7826 17.3417 76.7749 17.1152L76.702 14.6422C76.6943 14.4156 76.533 14.2351 76.3372 14.239C76.1413 14.2466 75.9877 14.4348 75.9954 14.6614L76.0684 17.1344Z" fill="#E30613"/>
<path d="M77.1552 16.6928C77.1629 16.8886 77.3242 17.0422 77.5201 17.0345C77.7159 17.0268 77.8695 16.8656 77.8618 16.6697L77.8157 15.0991C77.8081 14.9033 77.6468 14.7497 77.4509 14.7574C77.2551 14.7651 77.1015 14.9263 77.1092 15.1222L77.1552 16.6928Z" fill="#E30613"/>
<path d="M75.0472 17.1305C75.0549 17.3763 75.22 17.5721 75.412 17.5645C75.6079 17.5568 75.7576 17.3533 75.75 17.1075L75.6693 14.431C75.6616 14.1852 75.4965 13.9894 75.3045 13.997C75.1087 14.0047 74.9589 14.2082 74.9666 14.454L75.0472 17.1305Z" fill="#E30613"/>
<path d="M73.9909 17.3187C73.9986 17.6105 74.1637 17.8409 74.3595 17.8371C74.5554 17.8294 74.7051 17.5913 74.6975 17.2995L74.6053 14.1353C74.5976 13.8434 74.4325 13.613 74.2366 13.6169C74.0408 13.6245 73.891 13.8626 73.8987 14.1545L73.9909 17.3187Z" fill="#E30613"/>
<path d="M72.8926 17.3149C72.9003 17.6259 73.0692 17.8755 73.2612 17.8678C73.4571 17.8601 73.6069 17.6067 73.5992 17.2918L73.4993 13.9087C73.4917 13.5977 73.3227 13.3481 73.1307 13.3558C72.9348 13.3634 72.7851 13.6169 72.7928 13.9318L72.8926 17.3149Z" fill="#E30613"/>
<path d="M71.8791 17.5837C71.8907 17.9139 72.0558 18.1789 72.2516 18.1712C72.4475 18.1635 72.5972 17.8947 72.5857 17.5606L72.4782 13.9702C72.4667 13.6399 72.3015 13.3749 72.1057 13.3826C71.9099 13.3903 71.7601 13.6591 71.7716 13.9932L71.8791 17.5837Z" fill="#E30613"/>
<path d="M70.7809 17.5837C70.7925 17.9331 70.9576 18.2096 71.1534 18.2057C71.3493 18.1981 71.499 17.9139 71.4875 17.5645L71.3761 13.7705C71.3646 13.421 71.1995 13.1445 71.0037 13.1484C70.8078 13.1561 70.658 13.4402 70.6696 13.7897L70.7809 17.5837Z" fill="#E30613"/>
<path d="M69.7594 17.6029C69.7709 17.9639 69.936 18.2519 70.1319 18.2442C70.3277 18.2365 70.4775 17.9408 70.466 17.5799L70.3508 13.6592C70.3392 13.2982 70.1741 13.0102 69.9783 13.0179C69.7824 13.0255 69.6327 13.3212 69.6442 13.6822L69.7594 17.6029Z" fill="#E30613"/>
<path d="M68.7032 17.6336C68.7147 17.9946 68.8799 18.2826 69.0757 18.2749C69.2716 18.2672 69.4213 17.9715 69.4098 17.6105L69.2946 13.6898C69.2831 13.3289 69.118 13.0409 68.9221 13.0486C68.7263 13.0562 68.5765 13.3519 68.588 13.7129L68.7032 17.6336Z" fill="#E30613"/>
<path d="M67.6051 17.6643C67.6166 18.0253 67.7817 18.3133 67.9776 18.3056C68.1734 18.2979 68.3232 18.0022 68.3117 17.6413L68.1965 13.7205C68.1849 13.3596 68.0198 13.0716 67.824 13.0793C67.6281 13.0869 67.4784 13.3826 67.4899 13.7436L67.6051 17.6643Z" fill="#E30613"/>
<path d="M66.5837 17.7142C66.5952 18.0637 66.7603 18.344 66.9561 18.3363C67.152 18.3286 67.3018 18.0406 67.2902 17.6912L67.1789 13.8895C67.1674 13.5401 67.0022 13.2597 66.8064 13.2674C66.6105 13.2751 66.4608 13.5631 66.4723 13.9126L66.5837 17.7142Z" fill="#E30613"/>
<path d="M65.6159 17.7449C65.6274 18.0944 65.7925 18.3747 65.9884 18.367C66.1842 18.3594 66.334 18.0713 66.3225 17.7219L66.2111 13.9202C66.1996 13.5708 66.0345 13.2905 65.8386 13.2982C65.6428 13.3058 65.493 13.5938 65.5045 13.9433L65.6159 17.7449Z" fill="#E30613"/>
<path d="M88.2414 15.2566C88.2491 15.4601 88.0917 15.6368 87.8843 15.6444L78.8525 16.0284C78.649 16.0361 78.4723 15.8787 78.4646 15.6713C78.4569 15.4678 78.6144 15.2912 78.8218 15.2835L87.8536 14.8995C88.0609 14.8918 88.2337 15.0531 88.2414 15.2566Z" fill="#E30613"/>
<path d="M27.3154 13.8357C27.2347 12.6376 27.227 11.4318 27.1771 10.2337C27.1157 8.86281 28.9627 10.3988 29.0933 10.5371C29.412 10.8712 29.6808 11.2513 29.9842 11.6008C30.4181 12.1038 31.1324 12.1845 31.7545 12.1461C32.2153 12.1192 32.6991 11.8926 33.1331 11.7467C34.166 11.4011 35.2681 11.7275 36.3241 11.7429C37.791 11.7621 39.2234 11.3358 40.7018 11.3665C42.2839 11.4011 43.8276 11.2667 45.3944 11.0478C49.0463 10.5371 52.3526 10.2184 55.9622 11.1976C56.3539 11.3051 56.519 10.6984 56.1273 10.5908C52.6483 9.64618 49.3266 9.8305 45.7976 10.3566C43.7048 10.6676 41.7002 10.6523 39.6036 10.7521C38.6935 10.7944 37.7834 10.9902 36.8771 11.0824C35.9517 11.1784 35.0492 10.9979 34.1276 10.9441C33.4249 10.9019 32.726 11.2244 32.077 11.4357C31.0172 11.7774 30.5026 11.2667 29.9381 10.5601C29.412 9.90346 28.8168 9.2545 27.9413 9.13161C27.4574 9.06249 26.7355 9.35434 26.5973 9.86507C26.4936 10.2452 26.5857 10.6676 26.6165 11.0516C26.6933 11.9733 26.6318 12.9141 26.6933 13.8395C26.7163 14.2389 27.3422 14.2389 27.3154 13.8357Z" fill="black"/>
<path d="M27.0235 14.2696C26.8046 14.2696 26.5742 14.1237 26.555 13.8434C26.5243 13.3979 26.5243 12.9448 26.5205 12.507C26.5166 12.0309 26.5166 11.5355 26.4782 11.0593C26.4706 10.9748 26.4629 10.8865 26.4514 10.7982C26.413 10.4795 26.3784 10.1454 26.4629 9.82666C26.6088 9.30057 27.2501 8.98569 27.7915 8.98569C27.8491 8.98569 27.9029 8.98953 27.9567 8.99721C28.886 9.12777 29.5196 9.82666 30.038 10.4756C30.4489 10.9864 30.8367 11.4126 31.4511 11.4126C31.6316 11.4126 31.8198 11.378 32.0348 11.3089C32.1692 11.2667 32.3036 11.2168 32.4419 11.1707C32.9871 10.9787 33.5555 10.779 34.1392 10.8136C34.4272 10.8328 34.7152 10.8596 34.9955 10.8904C35.4294 10.9364 35.8749 10.9825 36.3126 10.9825C36.5085 10.9825 36.689 10.9748 36.8656 10.9556C37.2227 10.9172 37.5875 10.8635 37.9408 10.8136C38.4823 10.7329 39.0429 10.6523 39.5997 10.6254C40.145 10.5985 40.6942 10.5793 41.2241 10.564C42.7755 10.5102 44.2424 10.4641 45.7822 10.2337C47.7752 9.93802 49.3996 9.79978 50.8934 9.79978C52.7711 9.79978 54.4953 10.0187 56.1696 10.4718C56.3885 10.5294 56.5152 10.7252 56.4845 10.9518C56.4576 11.1515 56.304 11.3512 56.0544 11.3512C56.0122 11.3512 55.9738 11.3473 55.9315 11.3358C54.3648 10.9096 52.7481 10.706 50.9817 10.706C49.2345 10.706 47.4911 10.898 45.4136 11.1899C43.8161 11.4126 42.4798 11.5163 41.2049 11.5163C41.0359 11.5163 40.867 11.5163 40.698 11.5124C39.9569 11.4971 39.2119 11.6008 38.49 11.6968C37.8141 11.7889 37.1152 11.8849 36.4163 11.8849H36.3242C35.9824 11.8811 35.6329 11.8427 35.295 11.8081C34.9379 11.7697 34.5731 11.7313 34.216 11.7313C33.8204 11.7313 33.4787 11.7813 33.1753 11.8849C33.0716 11.9195 32.9641 11.9579 32.8566 12.0001C32.4995 12.1307 32.1347 12.2689 31.766 12.292C31.6777 12.2958 31.5855 12.2997 31.4934 12.2997C30.7714 12.2997 30.23 12.1 29.8882 11.7006C29.7653 11.5585 29.6501 11.4126 29.5388 11.2705C29.3698 11.0555 29.1932 10.8366 29.005 10.6408C28.8975 10.5294 28.0104 9.81514 27.5573 9.81514C27.4843 9.81514 27.4344 9.83434 27.3999 9.8689C27.3384 9.93034 27.3115 10.0609 27.3192 10.2375C27.3384 10.7022 27.3538 11.1745 27.3653 11.6353C27.3845 12.3573 27.4075 13.1061 27.4575 13.8395C27.4651 13.9624 27.4306 14.0699 27.3538 14.1506C27.2655 14.2235 27.1502 14.2696 27.0235 14.2696ZM27.7915 9.25065C27.3615 9.25065 26.8277 9.51178 26.7202 9.89578C26.6472 10.1646 26.6818 10.4718 26.7163 10.7675C26.7278 10.8596 26.7355 10.948 26.7432 11.0363C26.7816 11.524 26.7854 12.0232 26.7893 12.5032C26.7931 12.9371 26.7931 13.3864 26.8238 13.8242C26.8354 13.9662 26.9544 14.0008 27.0274 14.0008C27.0811 14.0008 27.1272 13.9816 27.1541 13.9547C27.1771 13.9278 27.1887 13.8894 27.1848 13.8434C27.1349 13.1061 27.1118 12.3534 27.0926 11.6277C27.0811 11.1707 27.0658 10.6984 27.0466 10.2337C27.0351 9.97258 27.085 9.78826 27.2002 9.66922C27.2885 9.57706 27.4037 9.53098 27.5496 9.53098C28.1487 9.53098 29.101 10.3451 29.1893 10.4372C29.389 10.6408 29.5656 10.8673 29.7385 11.0862C29.8498 11.2283 29.965 11.3704 30.0841 11.5086C30.3721 11.8427 30.8482 12.0155 31.4895 12.0155C31.574 12.0155 31.6623 12.0117 31.7468 12.0078C32.0771 11.9886 32.4265 11.8581 32.7644 11.7352C32.8758 11.6929 32.9871 11.6545 33.0908 11.6161C33.4211 11.5048 33.7897 11.451 34.216 11.451C34.5846 11.451 34.9571 11.4894 35.3219 11.5278C35.656 11.5624 35.9978 11.6008 36.328 11.6046H36.4163C37.096 11.6046 37.7872 11.5086 38.4554 11.4164C39.1888 11.3166 39.9453 11.2091 40.7057 11.2283C40.8708 11.2321 41.0398 11.2321 41.2049 11.2321C42.4644 11.2321 43.7892 11.1284 45.3752 10.9096C47.4642 10.6177 49.2191 10.4257 50.9778 10.4257C52.7673 10.4257 54.407 10.6369 55.9968 11.067C56.1235 11.1016 56.2042 11.0017 56.2157 10.9057C56.2234 10.8596 56.2234 10.7521 56.0928 10.7176C54.4454 10.2721 52.7404 10.0532 50.8857 10.0532C49.4034 10.0532 47.7944 10.1915 45.813 10.4872C44.2577 10.7176 42.7831 10.7675 41.2241 10.8212C40.6942 10.8404 40.1489 10.8558 39.6036 10.8827C39.0621 10.9096 38.5092 10.9902 37.9715 11.0708C37.6144 11.1246 37.2458 11.1784 36.8848 11.2168C36.7005 11.236 36.5085 11.2436 36.305 11.2436C35.8518 11.2436 35.3987 11.1976 34.9609 11.1515C34.6845 11.1246 34.3964 11.0939 34.1161 11.0747C33.5862 11.044 33.0447 11.2321 32.5263 11.4164C32.3881 11.4664 32.2499 11.5163 32.1155 11.5585C31.8735 11.6353 31.6585 11.6737 31.4511 11.6737C30.7215 11.6737 30.2684 11.186 29.8306 10.6408C29.3237 10.0071 28.7554 9.37737 27.9221 9.26217C27.8799 9.25449 27.8376 9.25065 27.7915 9.25065Z" fill="black"/>
<path d="M41.6 13.8357C41.7958 12.2613 41.5424 10.8059 43.3741 10.1377C44.7872 9.62318 46.5153 9.95726 47.9937 9.86126C50.7432 9.68078 53.2392 9.03949 55.9964 9.74222C56.3881 9.84206 56.557 9.23533 56.1615 9.13549C52.7054 8.25227 49.3531 9.31597 45.8893 9.26221C44.7104 9.24301 42.6137 9.21613 41.7843 10.2683C40.9625 11.309 41.1276 12.5762 40.9702 13.8319C40.9241 14.2389 41.55 14.2313 41.6 13.8357Z" fill="black"/>
<path d="M41.2468 14.2697C41.12 14.2697 41.001 14.2197 40.928 14.1353C40.8781 14.0777 40.8205 13.9778 40.8397 13.8204C40.8781 13.5209 40.8973 13.2136 40.9127 12.918C40.9703 11.981 41.0279 11.0171 41.6769 10.1915C42.5447 9.08942 44.6913 9.1163 45.8894 9.13166C47.1489 9.15086 48.4123 9.0203 49.6373 8.89358C50.7778 8.77454 51.9529 8.65549 53.1164 8.65549C54.2492 8.65549 55.2553 8.7707 56.1923 9.01262C56.4112 9.07022 56.5417 9.25839 56.511 9.48495C56.4841 9.68847 56.3267 9.892 56.0771 9.892C56.0387 9.892 56.0003 9.88815 55.958 9.87663C55.1209 9.66159 54.2377 9.55791 53.2623 9.55791C52.2178 9.55791 51.2041 9.67311 50.1327 9.79215C49.4376 9.86895 48.7234 9.9496 47.9938 9.99952C47.7979 10.011 47.5829 10.0187 47.3409 10.0187C47.0414 10.0187 46.7342 10.011 46.4347 9.99952C46.1313 9.99184 45.8164 9.98032 45.5092 9.98032C44.9025 9.98032 44.1153 10.0149 43.4126 10.2683C41.9725 10.7906 41.8957 11.7928 41.7959 13.0639C41.7767 13.3212 41.7575 13.5861 41.7229 13.8588C41.6999 14.1237 41.4618 14.2697 41.2468 14.2697ZM45.3672 9.39279C44.1998 9.39279 42.5716 9.49263 41.8919 10.3528C41.2929 11.1093 41.2391 11.9925 41.1815 12.9295C41.1623 13.229 41.1431 13.5401 41.1047 13.8511C41.1008 13.8972 41.1085 13.9317 41.1277 13.9586C41.1968 14.0393 41.4465 14.0124 41.4695 13.8204C41.5041 13.5554 41.5233 13.2943 41.5425 13.0408C41.6385 11.7851 41.7306 10.5986 43.3319 10.0149C44.0731 9.74607 44.891 9.71151 45.5169 9.71151C45.828 9.71151 46.1467 9.71919 46.4501 9.73071C46.7457 9.73839 47.0568 9.74991 47.3486 9.74991C47.5867 9.74991 47.7941 9.74223 47.9822 9.73071C48.7042 9.68463 49.4184 9.60399 50.1096 9.52719C51.1887 9.40431 52.2101 9.29295 53.27 9.29295C54.2684 9.29295 55.1708 9.40047 56.031 9.61935C56.1577 9.65007 56.2422 9.55407 56.2537 9.45423C56.2576 9.41199 56.2576 9.30447 56.1308 9.27375C55.2131 9.0395 54.23 8.92814 53.1202 8.92814C51.9682 8.92814 50.8008 9.05102 49.668 9.16622C48.4354 9.29295 47.1643 9.42735 45.8894 9.40815C45.732 9.39663 45.5553 9.39279 45.3672 9.39279Z" fill="black"/>
</svg>
