<svg width="138" height="26" viewBox="0 0 138 26" fill="none" xmlns="http://www.w3.org/2000/svg">
<path d="M137.786 2.27841H133.997V25.4222H137.786V2.27841Z" fill="#E30613"/>
<path d="M87.6586 7.55914H83.8696V25.4287H87.6586V7.55914Z" fill="#E30613"/>
<path d="M62.5692 7.56244H58.7803V25.4324H62.5692V7.56244Z" fill="#E30613"/>
<path d="M69.8124 2.71503H66.0234V25.4238H69.8124V2.71503Z" fill="#E30613"/>
<path d="M102.507 7.55753H98.7178V25.4271H102.507V7.55753Z" fill="#E30613"/>
<path d="M44.9413 7.56082H41.1523V25.4308H44.9413V7.56082Z" fill="#E30613"/>
<path d="M37.4931 2.72531H33.7041V25.4341H37.4931V2.72531Z" fill="#E30613"/>
<path d="M85.6459 5.26366C86.9283 5.26366 87.968 4.22401 87.968 2.94154C87.968 1.65907 86.9283 0.619415 85.6459 0.619415C84.3634 0.619415 83.3237 1.65907 83.3237 2.94154C83.3237 4.22401 84.3634 5.26366 85.6459 5.26366Z" fill="#E30613"/>
<path d="M93.6332 25.4377C94.9156 25.4377 95.9553 24.3981 95.9553 23.1156C95.9553 21.8331 94.9156 20.7935 93.6332 20.7935C92.3507 20.7935 91.311 21.8331 91.311 23.1156C91.311 24.3981 92.3507 25.4377 93.6332 25.4377Z" fill="#E30613"/>
<path d="M60.9081 5.41726C62.1905 5.41726 63.2302 4.37761 63.2302 3.09513C63.2302 1.81266 62.1905 0.77301 60.9081 0.77301C59.6256 0.77301 58.5859 1.81266 58.5859 3.09513C58.5859 4.37761 59.6256 5.41726 60.9081 5.41726Z" fill="#E30613"/>
<path fill-rule="evenodd" clip-rule="evenodd" d="M75.9236 25.4074L80.3609 25.4316L74.2544 16.2045L80.2438 7.32648L75.806 7.35065L71.7422 13.3827L71.743 19.5871L75.9236 25.4074Z" fill="#E30613"/>
<path fill-rule="evenodd" clip-rule="evenodd" d="M47.2197 7.36587V10.3864C48.7062 10.3864 51.6153 9.9694 51.6243 12.2424L51.6739 25.1842H55.4117V11.5255C55.4117 9.18498 53.6909 7.34989 51.3667 7.31467L47.2197 7.36587Z" fill="#E30613"/>
<path fill-rule="evenodd" clip-rule="evenodd" d="M104.371 7.64927L104.424 10.6599C104.665 10.6599 104.125 10.6686 104.424 10.6599C105.96 10.6153 108.001 10.6321 108.008 12.5356L108.058 25.477H111.796V11.8188C111.796 9.47821 110.075 7.64312 107.751 7.60748L104.371 7.64927Z" fill="#E30613"/>
<path fill-rule="evenodd" clip-rule="evenodd" d="M113.512 7.64927L113.564 10.6599C113.564 10.6599 113.266 10.6686 113.564 10.6599C115.1 10.6153 117.142 10.6321 117.149 12.5356L117.199 25.477H120.937V11.8188C120.937 9.47821 119.216 7.64312 116.892 7.60748L113.512 7.64927Z" fill="#E30613"/>
<path fill-rule="evenodd" clip-rule="evenodd" d="M26.8042 12.4074L26.8537 25.3493H30.5915V11.6906C30.5915 9.35043 28.8707 7.51493 26.5465 7.47971L18.8916 7.51902V10.5191V10.5645C20.5829 10.5645 22.2865 10.5191 23.9852 10.5191C25.5372 10.687 26.7993 11.1749 26.8042 12.4074Z" fill="#E30613"/>
<path d="M13.7896 2.19644H8.0918V5.57578H13.7896V2.19644Z" fill="#E30613"/>
<path d="M5.98879 21.9601H0.291016V25.3394H5.98879V21.9601Z" fill="#E30613"/>
<path fill-rule="evenodd" clip-rule="evenodd" d="M126.818 7.80206H131.887V10.7206H128.712C127.939 10.7333 127.505 11.1003 127.483 11.8982L127.51 20.485C127.507 21.41 127.55 22.1448 128.737 22.1641H131.912V25.0826H126.843C123.925 24.9781 123.971 22.3664 123.996 20.2061L123.95 11.0274C124.104 8.9834 125.025 7.86637 126.818 7.80206Z" fill="#E30613"/>
<path fill-rule="evenodd" clip-rule="evenodd" d="M5.92354 2.29599H3.46542C1.86996 2.34432 0.163086 3.40892 0.163086 5.23868V12.305C0.163086 13.7944 1.44806 14.7979 2.74572 15.2133C3.56946 15.4762 5.0277 15.3525 5.92354 15.3525V11.8708C5.0916 11.8741 3.89675 11.6684 3.88856 10.6157L3.85988 6.96726C3.85005 5.73022 4.85812 5.38942 5.92354 5.36812V2.29599Z" fill="#E30613"/>
<path fill-rule="evenodd" clip-rule="evenodd" d="M7.98486 25.3816H10.4426C12.0384 25.3333 13.7453 24.2683 13.7453 22.4385V15.3726C13.7453 13.8832 12.4603 12.8797 11.1623 12.4643C10.3389 12.2009 8.88029 12.3251 7.98486 12.3251V15.8068C8.8168 15.8035 10.0112 16.0092 10.0198 17.0619L10.0485 20.7103C10.0583 21.947 9.05028 22.2882 7.98486 22.3095V25.3816Z" fill="#E30613"/>
<path fill-rule="evenodd" clip-rule="evenodd" d="M24.8881 14.1716H20.8472C19.2181 14.1716 17.0029 15.5123 17.0029 17.297V21.6205V22.0551V22.1096H17.0042C17.0455 23.7362 18.9208 24.9818 20.4781 25.1584L20.4888 25.1801H20.8472H24.8881V22.4795V22.3132L22.371 22.3123C19.9055 22.1579 20.1631 17.0402 22.3841 17.0397L24.8881 17.0389V14.1716Z" fill="#E30613"/>
</svg>
