<svg width="33" height="33" viewBox="0 0 33 33" fill="none" xmlns="http://www.w3.org/2000/svg">
<path d="M31.6263 0H25.4111C24.7916 0 24.2462 0.41749 24.0846 1.01679L21.8692 9.30598H1.37852C0.765748 9.29251 -0.298177 9.91202 0.0789104 11.1308L3.68818 21.5681C6.79242 20.7802 9.5263 22.2751 10.597 23.4872H14.7719C16.0782 22.1606 18.5629 20.8341 21.4517 21.5075L26.4683 2.74735H31.6263C32.3872 2.74735 33 2.13458 33 1.37368C33 0.612767 32.3872 0 31.6263 0Z" fill="black"/>
<path d="M19.9029 24.0932C17.4384 24.0932 15.4385 26.0864 15.4385 28.5442C15.4385 30.9952 17.4451 32.9952 19.9029 32.9952C22.3675 32.9952 24.3674 31.002 24.3674 28.5442C24.3674 26.0931 22.3675 24.0932 19.9029 24.0932Z" fill="#E30613"/>
<path d="M5.45908 24.0932C2.99454 24.0932 0.994629 26.0864 0.994629 28.5442C0.994629 30.9952 3.00127 32.9952 5.45908 32.9952C7.92361 32.9952 9.92352 31.002 9.92352 28.5442C9.92352 26.0931 7.92361 24.0932 5.45908 24.0932Z" fill="#E30613"/>
</svg>
